<?xml version="1.0" standalone="no"?>
<!DOCTYPE svg PUBLIC "-//W3C//DTD SVG 20010904//EN"
 "http://www.w3.org/TR/2001/REC-SVG-20010904/DTD/svg10.dtd">
<svg version="1.0" xmlns="http://www.w3.org/2000/svg"
 width="512.000000pt" height="512.000000pt" viewBox="0 0 512.000000 512.000000"
 preserveAspectRatio="xMidYMid meet">
<metadata>
Created by potrace 1.14, written by Peter Selinger 2001-2017
</metadata>
<g transform="translate(0.000000,512.000000) scale(0.100000,-0.100000)"
fill="#000000" stroke="none">
<path d="M3094 4416 c1 -8 5 -18 8 -22 4 -3 5 1 4 10 -1 8 -5 18 -8 22 -4 3
-5 -1 -4 -10z"/>
<path d="M3356 4407 c3 -10 9 -15 12 -12 3 3 0 11 -7 18 -10 9 -11 8 -5 -6z"/>
<path d="M2975 4400 c-2 -3 10 -6 26 -6 16 -1 29 1 29 5 0 8 -50 9 -55 1z"/>
<path d="M3120 4400 c0 -5 5 -10 11 -10 5 0 7 5 4 10 -3 6 -8 10 -11 10 -2 0
-4 -4 -4 -10z"/>
<path d="M2955 4379 c5 -12 -1 -15 -24 -14 -17 1 -28 -2 -25 -6 7 -12 -37 -38
-54 -32 -12 5 -14 2 -8 -13 10 -23 16 -68 9 -60 -3 3 -13 -3 -22 -12 -9 -10
-12 -12 -8 -5 5 6 10 23 11 36 2 20 -2 25 -20 25 -20 0 -21 -2 -9 -15 15 -14
10 -43 -7 -43 -5 0 -6 -5 -2 -11 4 -7 -1 -7 -16 1 -17 9 -25 9 -34 0 -8 -9 -7
-11 4 -8 10 2 15 -6 15 -30 1 -18 -2 -35 -6 -37 -4 -3 -5 11 -3 30 3 32 1 34
-16 25 -16 -9 -18 -8 -13 6 5 13 3 15 -7 9 -8 -5 -20 1 -32 16 -18 22 -18 22
-9 2 7 -13 7 -24 2 -27 -5 -4 -11 -1 -13 6 -3 8 -12 2 -22 -15 -10 -15 -23
-27 -28 -27 -6 0 -5 7 2 15 9 11 10 19 3 26 -7 7 -15 4 -24 -8 -13 -16 -12
-17 4 -4 10 8 17 9 17 3 0 -16 -57 -41 -69 -31 -6 5 -9 6 -6 3 6 -9 -14 -34
-26 -34 -5 0 -9 7 -9 17 0 9 -3 14 -6 10 -3 -3 -3 -15 1 -27 5 -16 10 -19 18
-11 14 14 30 14 21 0 -4 -8 0 -7 15 1 12 6 19 15 16 19 -3 5 3 12 12 15 15 6
69 -32 59 -42 -2 -2 -14 6 -26 18 -12 12 -25 18 -28 14 -4 -3 -1 -9 6 -11 19
-7 34 -40 17 -40 -7 0 -11 7 -7 15 3 10 1 13 -6 8 -7 -4 -12 -2 -12 4 0 6 -5
8 -10 5 -7 -4 -6 -13 1 -26 6 -12 8 -23 6 -26 -3 -2 -8 5 -12 16 -3 12 -11 21
-16 21 -6 0 -8 -4 -4 -9 3 -5 1 -12 -5 -16 -6 -4 -7 -11 -4 -17 4 -7 2 -8 -5
-4 -8 6 -9 12 -2 20 6 7 8 16 4 19 -9 10 -25 9 -19 -1 2 -4 0 -14 -6 -22 -8
-13 -9 -12 -5 2 6 19 -15 42 -28 30 -5 -4 -6 0 -3 9 4 9 1 16 -7 16 -8 0 -11
-7 -7 -16 5 -13 3 -14 -9 -4 -13 10 -19 9 -35 -5 -26 -23 -45 -26 -57 -10 -6
10 -7 8 -3 -4 3 -10 1 -20 -4 -23 -6 -4 -10 -2 -10 3 0 6 -8 13 -17 16 -16 6
-16 6 0 -12 20 -22 23 -39 3 -23 -10 9 -17 6 -30 -14 -11 -16 -21 -22 -33 -18
-12 5 -15 2 -10 -10 3 -9 2 -19 -2 -22 -12 -7 -23 24 -14 37 3 7 1 8 -6 4 -7
-5 -9 -16 -5 -29 6 -19 5 -20 -10 -8 -10 9 -16 10 -16 2 0 -6 5 -11 10 -11 6
0 10 -4 10 -8 0 -5 -7 -9 -15 -9 -8 0 -15 6 -15 13 0 7 -4 16 -10 19 -6 3 -7
-1 -4 -9 3 -9 3 -24 -1 -33 -6 -16 -9 -15 -29 9 -19 24 -22 25 -22 9 0 -11 5
-17 10 -14 5 4 7 -1 3 -11 -4 -10 -7 -21 -7 -24 0 -4 -5 0 -10 8 -8 11 -9 8
-6 -14 3 -16 3 -26 -1 -23 -3 3 -12 0 -19 -8 -9 -8 -27 -12 -45 -10 -24 3 -29
0 -25 -11 4 -9 2 -12 -5 -8 -6 4 -15 1 -19 -6 -5 -8 -9 -7 -13 5 -5 10 -3 14
5 9 7 -5 8 -3 3 6 -5 8 -4 11 3 6 6 -3 13 -2 17 4 4 6 11 8 16 5 5 -4 9 -2 9
4 0 5 11 8 25 7 14 -2 22 1 18 7 -4 6 -1 7 7 2 9 -6 11 -4 5 5 -5 8 -4 11 3 7
6 -5 8 1 4 15 -5 17 -7 19 -10 7 -2 -11 -10 -15 -22 -12 -11 3 -17 10 -13 17
7 12 -38 -25 -73 -61 -15 -15 -19 -24 -11 -32 8 -8 8 -14 -1 -23 -9 -9 -12 -9
-12 1 0 7 -5 9 -11 6 -7 -5 -5 -14 5 -29 12 -19 12 -23 1 -23 -8 0 -12 4 -9 9
3 4 0 8 -6 8 -6 0 -9 4 -5 9 3 5 1 12 -4 15 -5 3 -12 -4 -16 -17 -5 -12 -11
-31 -15 -42 -8 -19 -8 -19 -9 2 -1 12 4 25 9 28 6 3 10 11 10 18 0 6 -11 0
-24 -13 -16 -18 -21 -29 -14 -37 6 -7 7 -13 2 -13 -4 0 0 -6 10 -13 16 -12 16
-13 -2 -13 -12 0 -19 6 -17 16 3 20 -14 40 -34 40 -14 -1 -14 -2 2 -11 9 -5
17 -15 17 -22 0 -8 -4 -7 -10 3 -7 12 -12 11 -30 -5 -16 -14 -18 -21 -8 -28
10 -6 9 -7 -2 -4 -8 2 -14 10 -13 16 3 12 -10 15 -20 4 -4 -3 -2 -12 4 -20 9
-9 8 -13 0 -13 -6 0 -11 5 -11 10 0 17 -26 11 -45 -10 -12 -13 -26 -18 -39
-15 -21 6 -21 6 -2 -9 11 -9 15 -16 10 -16 -6 0 -15 5 -21 11 -8 8 -17 7 -32
-3 -12 -8 -18 -18 -14 -21 3 -4 1 -7 -5 -7 -23 0 -27 -2 -43 -16 -9 -8 -19
-11 -22 -7 -4 3 -7 1 -7 -5 0 -7 8 -12 18 -12 14 0 15 -2 2 -10 -11 -7 -18 -3
-27 13 -6 12 -14 20 -18 19 -4 -2 -10 0 -13 4 -4 4 -1 4 7 -1 10 -6 12 -4 6 6
-7 12 -6 12 7 1 13 -10 17 -10 22 5 4 9 0 22 -9 30 -8 7 -13 10 -10 7 6 -9
-18 -33 -28 -27 -4 2 -6 -1 -5 -8 2 -6 -3 -14 -10 -16 -7 -3 -12 -1 -11 4 3
18 -2 31 -14 36 -8 3 -14 -1 -14 -8 0 -8 3 -13 6 -12 3 1 6 -3 6 -8 0 -6 -5
-10 -11 -10 -6 0 -19 -6 -28 -14 -14 -12 -19 -11 -39 5 -12 11 -17 12 -11 4 8
-11 7 -22 -2 -40 -8 -14 -14 -19 -14 -11 0 8 -3 12 -6 8 -3 -3 -1 -14 5 -24 6
-11 11 -13 11 -5 0 7 5 10 12 6 6 -4 8 -3 5 4 -9 14 3 43 15 36 5 -3 4 -12 -4
-22 -11 -13 -11 -14 0 -8 11 7 11 4 1 -12 -7 -12 -21 -19 -31 -17 -11 2 -17
-1 -16 -8 2 -7 -2 -12 -7 -12 -5 0 -8 7 -7 14 3 13 1 13 -13 1 -11 -9 -13 -16
-5 -24 13 -13 13 -26 -2 -26 -6 0 -8 3 -5 7 4 3 -1 12 -11 19 -25 20 -38 17
-19 -4 14 -15 15 -19 2 -19 -8 0 -11 5 -8 10 4 6 -1 8 -11 4 -10 -4 -15 -3
-11 3 3 5 -1 22 -9 37 -8 16 -15 24 -16 20 0 -5 5 -17 11 -29 9 -17 8 -19 -8
-14 -22 7 -28 -19 -10 -41 6 -9 6 -13 -2 -13 -6 0 -11 4 -11 9 0 5 -8 8 -17 6
-12 -1 -18 -11 -17 -25 1 -21 0 -21 -11 -6 -11 15 -13 14 -18 -5 -5 -19 -8
-20 -21 -9 -10 8 -16 8 -16 2 0 -6 5 -14 10 -17 6 -3 10 -11 10 -18 0 -6 -6
-2 -14 8 -13 18 -13 18 -25 -1 -10 -16 -12 -16 -7 -1 3 9 1 17 -5 17 -6 0 -7
5 -3 12 4 6 3 8 -4 4 -6 -3 -9 -16 -7 -27 5 -26 -12 -62 -26 -54 -5 4 -9 12
-9 18 0 7 4 6 10 -3 8 -13 10 -13 10 1 0 21 -9 29 -25 22 -8 -2 -11 -11 -8
-19 3 -8 0 -14 -7 -14 -6 0 -8 -5 -5 -10 4 -6 10 -8 15 -5 11 7 7 -22 -5 -32
-4 -4 -5 -3 -2 3 4 6 -2 19 -13 29 -18 17 -20 17 -26 1 -5 -12 -9 -14 -14 -6
-9 15 -59 20 -67 7 -3 -6 -1 -7 5 -3 8 5 10 2 6 -8 -4 -11 0 -16 12 -16 16 0
17 2 4 10 -12 7 -10 9 7 7 13 0 25 -7 28 -15 3 -7 0 -10 -6 -7 -5 4 -21 0 -34
-9 -21 -14 -24 -14 -19 -1 5 11 2 13 -10 9 -9 -3 -14 -10 -11 -14 3 -5 0 -12
-6 -16 -7 -4 -9 -3 -5 4 3 6 2 13 -4 17 -5 3 -10 -1 -10 -10 0 -12 -5 -15 -22
-9 -20 6 -21 5 -9 -10 8 -9 11 -19 7 -23 -3 -3 -6 -1 -6 5 0 7 -3 11 -7 10
-13 -2 -43 14 -39 21 2 3 -2 17 -10 31 l-15 25 7 -25 c6 -22 5 -23 -10 -11
-31 26 -16 -1 21 -36 24 -22 29 -31 16 -24 -27 14 -30 4 -5 -16 15 -13 15 -13
-6 -3 -16 8 -22 8 -22 -1 0 -7 -3 -10 -6 -7 -3 4 -1 15 5 26 9 17 6 23 -15 37
-15 9 -23 12 -20 6 4 -6 3 -11 -3 -11 -5 0 -12 -9 -16 -20 -7 -22 -27 -22 -37
0 -5 11 -7 9 -7 -7 -1 -13 -6 -23 -12 -23 -6 0 -8 7 -4 18 5 13 3 14 -6 5 -15
-15 -1 -36 20 -29 12 4 11 2 -4 -9 -17 -14 -20 -14 -30 3 -10 17 -11 17 -27 0
-10 -10 -14 -18 -10 -18 4 0 13 5 20 12 8 8 12 8 12 1 0 -6 -7 -16 -15 -23
-12 -10 -18 -10 -30 0 -10 9 -15 9 -15 1 0 -6 6 -11 13 -12 6 0 2 -5 -11 -11
-13 -6 -21 -17 -18 -24 3 -7 -1 -15 -9 -18 -7 -2 -16 2 -19 10 -3 8 -13 13
-23 13 -17 -1 -17 -2 -1 -6 22 -6 23 -19 2 -27 -22 -9 -26 -8 -18 6 4 7 3 8
-5 4 -15 -10 -3 -29 15 -22 7 3 16 1 19 -3 8 -13 -27 -23 -39 -11 -5 5 -15 10
-20 10 -6 0 -3 -5 7 -11 9 -5 17 -15 17 -21 0 -9 -3 -9 -12 0 -7 7 -17 12 -22
12 -6 0 -3 -5 7 -11 9 -5 17 -17 17 -25 0 -8 5 -12 10 -9 6 4 8 10 5 15 -3 4
6 15 20 24 14 10 22 22 19 31 -4 10 0 13 17 10 12 -2 29 0 38 6 14 9 14 10 0
6 -9 -3 -16 1 -16 8 0 7 7 11 16 8 14 -4 14 -4 1 6 -14 10 -8 13 16 10 4 0 11
5 16 13 7 10 8 9 4 -4 -3 -12 0 -18 10 -18 8 0 12 5 9 11 -4 6 9 26 29 44 20
18 39 29 42 24 3 -5 0 -9 -6 -9 -6 0 -8 -5 -4 -11 4 -8 9 -7 15 2 4 7 11 10
16 5 4 -4 0 -12 -10 -17 -10 -6 -14 -16 -10 -22 3 -7 -3 -3 -15 7 -22 19 -32
10 -11 -11 8 -8 8 -13 0 -18 -6 -3 -11 -3 -10 2 4 23 -3 25 -17 5 -8 -12 -21
-22 -29 -22 -8 0 -20 -9 -28 -20 -8 -11 -17 -17 -22 -12 -4 4 -5 -1 -2 -11 4
-11 3 -16 -3 -12 -6 3 -13 -1 -16 -9 -3 -9 -10 -13 -15 -10 -5 3 -9 -1 -9 -8
0 -10 -2 -10 -8 -1 -5 8 -13 9 -22 3 -10 -7 -11 -10 -2 -10 6 0 12 -5 12 -11
0 -5 -4 -7 -10 -4 -5 3 -10 2 -10 -4 0 -5 6 -12 13 -15 6 -3 2 -3 -10 0 -13 3
-23 1 -23 -5 0 -6 5 -11 10 -11 6 0 10 -5 10 -11 0 -8 -5 -8 -15 1 -8 7 -14
18 -14 24 3 17 -12 46 -23 46 -6 0 -4 -8 3 -17 12 -15 12 -16 -3 -10 -13 4
-16 1 -13 -14 3 -12 -1 -19 -9 -17 -8 2 -24 -8 -36 -22 -21 -24 -22 -19 -4 24
3 7 -2 16 -12 20 -13 5 -14 3 -7 -6 6 -9 6 -21 -2 -36 -9 -17 -14 -20 -18 -10
-4 10 -6 10 -7 -2 0 -10 -5 -8 -13 7 -11 19 -12 13 -13 -48 -1 -38 3 -69 8
-69 5 0 6 5 2 12 -4 6 -3 8 4 5 5 -4 8 -16 5 -28 -4 -15 -8 -17 -14 -8 -4 7
-8 -254 -8 -580 0 -465 2 -590 12 -585 9 6 9 5 0 -7 -12 -15 -11 -102 2 -131
4 -10 13 -18 21 -18 8 0 14 -4 14 -10 0 -5 6 -10 13 -10 6 1 1 10 -12 20 -17
15 -19 20 -8 20 9 0 19 -5 22 -10 5 -8 11 -7 21 1 17 14 18 5 2 -24 -10 -19
-9 -21 4 -9 10 8 19 9 22 3 3 -5 0 -12 -6 -14 -9 -4 -10 -6 -1 -6 6 -1 15 4
18 9 3 6 11 10 17 10 6 0 5 -7 -3 -17 -8 -9 -9 -14 -2 -10 14 9 28 -27 17 -45
-5 -9 -4 -10 4 -3 9 9 17 31 21 66 1 9 51 6 51 -3 0 -5 -6 -8 -12 -7 -25 3
-41 -1 -34 -9 4 -4 13 -7 19 -7 7 0 12 -6 12 -13 0 -8 9 -20 19 -28 11 -7 16
-17 12 -21 -4 -4 -11 -1 -16 7 -7 10 -10 11 -10 3 0 -7 -3 -12 -7 -12 -5 1
-15 1 -23 0 -13 -1 -13 -3 0 -10 8 -6 18 -7 24 -4 5 4 7 -1 3 -10 -3 -10 -2
-17 3 -17 6 0 10 7 10 15 0 8 4 15 9 15 14 0 7 -30 -10 -41 -8 -5 -9 -9 -3 -9
5 0 15 5 22 12 19 19 14 -3 -6 -26 -17 -21 -17 -21 4 -3 12 10 25 17 30 16 22
-4 45 2 39 10 -3 6 -14 8 -24 6 -10 -2 -18 3 -18 11 0 8 4 14 9 14 5 0 6 5 2
11 -5 8 -9 8 -14 -1 -5 -9 -9 -9 -14 -1 -4 6 -2 11 4 11 6 0 9 4 6 8 -2 4 5
14 17 22 20 12 21 12 9 -3 -15 -18 -7 -41 11 -31 8 5 8 3 0 -7 -7 -7 -13 -18
-13 -23 1 -6 10 0 22 14 14 16 19 19 15 8 -4 -11 -2 -18 6 -18 8 0 9 -2 1 -8
-6 -4 -10 -15 -8 -24 1 -10 -3 -21 -8 -25 -7 -3 -8 -1 -4 5 5 8 2 10 -8 6 -9
-3 -13 -10 -10 -15 11 -18 31 -8 45 23 13 26 17 29 22 14 4 -10 3 -15 -3 -11
-17 11 -11 -7 7 -21 25 -19 38 -17 22 3 -11 13 -8 13 13 -2 28 -21 36 -35 18
-35 -5 0 -10 5 -10 11 0 5 -5 7 -11 3 -8 -4 -7 -9 2 -15 10 -6 10 -9 2 -9 -7
0 -17 8 -22 19 -6 10 -17 21 -24 24 -13 5 -15 -5 -8 -46 0 -5 10 -6 20 -2 15
4 19 1 17 -12 -2 -10 -1 -12 1 -6 3 7 9 13 14 13 6 0 8 -4 5 -8 -3 -5 1 -9 9
-9 8 0 15 4 15 9 0 4 -5 8 -11 8 -7 0 0 9 14 20 14 11 29 20 34 20 4 0 1 -6
-7 -13 -8 -7 -16 -21 -18 -32 -2 -18 -1 -18 18 4 11 13 24 21 27 17 4 -4 1
-11 -7 -16 -8 -5 -11 -12 -8 -16 4 -3 20 3 37 15 21 15 32 18 37 10 4 -7 3 -9
-2 -6 -5 3 -20 -3 -33 -12 -16 -12 -20 -21 -12 -25 6 -4 11 -1 11 6 0 8 4 7
11 -4 5 -9 15 -16 22 -14 6 1 9 1 4 -1 -13 -8 3 -22 18 -17 8 4 12 10 9 15 -3
5 0 9 6 9 7 0 9 -8 5 -20 -5 -15 -3 -18 8 -14 8 3 22 -2 31 -11 9 -9 16 -13
16 -9 0 13 24 -15 26 -31 1 -8 -2 -15 -8 -15 -6 0 -8 6 -5 13 3 8 -1 14 -9 14
-7 0 -10 -5 -7 -10 3 -6 1 -7 -6 -3 -6 4 -9 11 -6 16 3 5 -3 7 -13 5 -21 -4
-44 8 -43 21 0 5 -8 8 -19 8 -11 -1 -17 3 -13 9 4 6 1 7 -7 2 -9 -6 -11 -4 -5
5 5 8 4 11 -3 6 -6 -3 -14 -2 -17 4 -5 8 -11 7 -21 -1 -13 -11 -19 -3 -15 23
0 4 -8 6 -19 5 -24 -2 -27 -17 -3 -17 9 0 13 -3 10 -7 -4 -3 1 -12 11 -19 13
-9 20 -10 31 -1 11 10 13 8 7 -10 -4 -12 -2 -24 4 -28 8 -5 7 -12 -2 -23 -12
-15 -11 -16 4 -4 10 8 20 22 23 33 4 11 11 17 16 13 5 -3 6 -11 2 -17 -13 -21
-11 -36 4 -30 11 4 11 8 3 13 -8 5 -9 10 -2 14 6 3 14 1 17 -5 4 -5 13 -8 20
-5 21 8 26 -6 7 -21 -15 -13 -15 -13 4 -4 17 8 27 6 48 -10 22 -18 25 -24 14
-38 -7 -10 -5 -9 8 3 13 13 15 20 7 23 -20 7 -15 19 7 20 11 1 18 -2 15 -8 -4
-5 2 -12 11 -16 16 -6 16 -7 -1 -13 -12 -4 -20 -17 -20 -33 -1 -14 2 -24 6
-21 4 2 6 13 4 24 -2 11 0 20 5 20 4 0 17 3 27 7 15 6 16 4 6 -9 -15 -17 -8
-28 19 -28 13 0 17 -4 12 -12 -6 -9 -3 -9 9 0 10 8 22 10 31 5 14 -8 16 -12
16 -33 0 -6 7 -10 16 -8 10 2 19 -3 22 -11 3 -8 0 -11 -7 -7 -7 5 -9 1 -4 -10
5 -15 7 -14 16 2 6 11 18 25 26 32 14 12 14 13 -2 8 -11 -3 -16 -2 -12 4 3 6
1 10 -4 10 -6 0 -11 -6 -11 -12 0 -9 -4 -8 -10 2 -7 11 -10 11 -10 2 0 -7 -5
-10 -11 -6 -8 4 -7 9 2 15 10 6 11 9 2 9 -7 0 -12 5 -10 11 1 6 -4 14 -12 17
-10 3 -11 0 -5 -9 6 -12 5 -12 -8 -1 -13 10 -17 10 -21 0 -4 -8 -6 -9 -6 -1
-1 6 -10 9 -21 6 -27 -7 -25 1 5 21 22 15 24 15 18 0 -5 -15 -3 -14 21 1 21
14 26 15 24 4 -2 -8 3 -13 12 -11 8 2 12 0 8 -3 -10 -10 11 -47 22 -40 5 3 22
-1 38 -9 23 -12 32 -12 43 -3 7 7 5 2 -5 -10 -11 -13 -14 -23 -8 -23 6 0 13 4
17 10 8 13 35 1 35 -16 0 -8 5 -14 11 -14 5 0 7 5 3 12 -4 7 -3 8 4 4 6 -4 9
-13 6 -21 -4 -8 -11 -12 -18 -8 -11 8 -32 13 -53 15 -7 1 -13 6 -13 11 0 5 -7
6 -16 3 -10 -4 -13 -2 -8 6 4 7 3 8 -5 4 -9 -6 -9 -11 0 -22 6 -7 15 -11 20
-8 5 3 9 0 9 -6 0 -7 8 -9 19 -5 20 6 23 -7 7 -35 -5 -8 3 -4 19 10 25 22 27
23 21 5 -3 -11 -1 -27 4 -35 6 -9 10 -10 10 -3 0 6 9 11 20 10 12 -1 18 -7 16
-14 -3 -8 1 -10 11 -6 11 4 14 2 9 -5 -5 -8 -1 -10 10 -5 13 5 15 3 8 -8 -15
-24 -13 -37 9 -56 22 -18 22 -18 4 3 -14 17 -15 23 -5 27 10 4 10 6 -1 6 -10
1 -11 4 -2 14 8 10 7 19 -5 33 -8 10 -12 13 -8 5 5 -9 3 -12 -5 -7 -6 4 -8 12
-5 18 4 6 2 8 -4 4 -6 -3 -18 4 -28 16 -10 14 -14 16 -11 6 3 -9 0 -19 -9 -22
-18 -7 -18 4 2 32 18 26 39 28 49 5 5 -15 4 -16 -6 -5 -7 6 -16 12 -21 12 -13
0 3 -28 20 -34 9 -3 24 -9 32 -13 13 -6 13 -4 0 12 -14 18 -13 18 11 0 15 -11
25 -24 22 -29 -3 -4 -9 -2 -14 5 -6 10 -9 10 -9 2 0 -19 18 -25 40 -13 21 11
21 11 6 -19 -9 -16 -13 -37 -10 -46 7 -16 34 -17 46 0 4 6 8 2 8 -7 0 -10 4
-18 10 -18 12 0 9 22 -4 32 -6 4 -17 3 -27 -2 -16 -9 -29 -4 -29 11 0 5 6 6
14 3 18 -7 30 12 15 22 -8 4 -9 3 -5 -4 4 -7 2 -12 -4 -12 -7 0 -10 6 -8 13 7
19 44 15 40 -6 -3 -20 14 -23 22 -4 3 6 3 -1 1 -16 -3 -23 -1 -28 12 -23 8 4
22 1 31 -6 13 -11 14 -9 8 12 -6 24 -6 24 9 -2 20 -35 27 -35 20 0 -5 24 -4
23 9 -6 9 -18 20 -31 26 -27 5 3 20 -3 32 -14 12 -12 24 -18 27 -15 3 3 -3 12
-13 20 -11 8 -15 14 -9 14 6 0 16 -7 23 -15 10 -12 16 -13 29 -3 14 12 14 11
2 -4 -15 -20 -9 -23 20 -8 10 6 19 8 19 6 0 -7 -56 -36 -67 -36 -4 0 -1 5 7
10 12 7 10 9 -8 7 -29 -2 -28 -11 4 -25 14 -7 23 -8 19 -2 -6 10 14 14 44 11
7 -2 10 2 7 7 -3 5 1 18 9 28 11 13 15 15 13 4 -2 -8 -7 -18 -11 -21 -5 -3 5
-12 22 -19 17 -7 31 -20 31 -29 0 -14 2 -14 10 -1 6 10 10 11 10 3 0 -7 5 -13
11 -13 5 0 7 6 3 12 -6 10 -4 11 7 1 7 -7 20 -13 28 -13 11 0 8 5 -7 16 -18
13 -21 19 -11 30 6 8 16 14 22 14 6 0 2 -6 -8 -14 -18 -13 -17 -14 11 -29 16
-9 23 -16 16 -17 -7 0 -11 -4 -7 -10 3 -5 11 -8 18 -6 7 1 9 1 5 -1 -5 -3 -8
-9 -8 -14 0 -6 5 -7 10 -4 5 3 11 1 11 -4 1 -6 2 -16 3 -23 0 -6 6 -13 13 -15
12 -4 11 26 -1 45 -7 12 12 38 21 29 4 -5 1 -12 -6 -16 -10 -6 -6 -15 15 -35
16 -14 32 -26 36 -26 5 0 8 -5 8 -12 0 -6 -10 -2 -23 10 -31 29 -46 28 -19 -1
20 -21 20 -23 3 -23 -13 0 -17 5 -13 16 5 13 4 13 -12 1 -20 -16 -58 -23 -50
-9 4 5 13 7 21 4 9 -4 13 -1 10 6 -2 7 -11 11 -18 9 -13 -3 -37 -8 -49 -10 -3
-1 2 -6 10 -11 9 -6 10 -10 3 -10 -16 0 -26 17 -13 25 6 4 7 11 4 17 -4 7 -9
7 -13 -1 -4 -6 -11 -3 -19 9 -7 12 -8 20 -2 20 5 0 10 -5 10 -12 0 -16 13 -1
16 18 2 11 -4 13 -19 9 -18 -5 -19 -4 -7 5 13 10 13 11 -2 6 -10 -3 -20 -1
-23 5 -4 5 -11 7 -16 4 -5 -3 -6 2 -3 12 5 15 4 16 -6 3 -10 -13 -11 -13 -7 2
3 9 -1 19 -9 22 -24 9 -29 7 -16 -6 15 -15 16 -28 2 -28 -5 0 -9 6 -7 13 1 6
-4 11 -10 10 -7 -2 -13 2 -13 8 0 18 -17 1 -23 -23 -6 -22 -5 -22 8 -4 14 18
20 15 16 -7 -1 -5 2 -6 6 -4 5 3 14 -1 20 -8 10 -11 9 -15 -7 -20 -11 -4 -20
-11 -20 -17 0 -7 5 -7 14 1 7 6 20 9 28 6 9 -4 23 1 32 10 9 9 16 15 17 13 6
-28 5 -38 -4 -37 -27 3 -39 -2 -34 -15 3 -8 -1 -17 -9 -20 -12 -4 -14 -1 -9
14 4 11 2 20 -4 20 -20 0 -20 -19 0 -41 11 -13 18 -18 14 -11 -8 15 7 16 23 0
9 -9 12 -9 12 2 0 13 2 13 10 0 7 -11 10 -11 10 -2 0 8 5 10 13 5 6 -4 51 -8
99 -9 77 -1 87 1 91 18 4 13 -5 25 -29 41 -18 12 -34 26 -34 30 0 10 89 -56
90 -66 0 -5 -4 -5 -10 -2 -6 3 -10 0 -10 -8 0 -16 81 -19 92 -3 13 19 8 32 -6
14 -11 -15 -13 -12 -13 24 0 23 -5 44 -11 46 -7 2 -12 8 -12 14 0 6 6 6 15 -2
8 -7 15 -18 15 -26 0 -7 5 -16 11 -20 8 -4 9 0 4 15 -4 13 0 29 11 43 15 22
15 16 -1 -24 -3 -8 4 -14 20 -14 16 -1 22 2 18 10 -13 19 -10 54 3 49 7 -3 10
-11 7 -19 -3 -8 -1 -14 5 -14 18 0 21 39 3 44 -10 3 -9 4 4 3 13 -2 19 -9 17
-20 -2 -11 2 -15 13 -11 8 3 13 9 10 13 -2 4 6 6 18 5 12 -1 26 -3 30 -3 5 -1
5 -6 1 -12 -5 -8 -9 -8 -14 1 -5 8 -9 7 -13 -4 -4 -9 1 -19 11 -25 9 -5 13
-13 9 -17 -4 -4 -12 -3 -19 4 -8 8 -18 7 -39 -4 -16 -8 -29 -17 -29 -20 0 -3
5 -2 11 2 8 4 8 0 0 -15 -13 -24 -47 -44 -61 -36 -6 3 -10 2 -10 -4 0 -5 22
-9 49 -8 27 1 47 5 44 9 -2 5 0 8 6 8 5 0 12 -6 15 -12 3 -7 3 2 0 21 -4 29
-3 32 10 22 7 -6 12 -22 10 -34 -2 -12 -1 -15 2 -7 3 8 13 21 22 27 9 7 12 16
7 20 -4 5 -10 2 -12 -5 -4 -10 -8 -10 -19 -1 -8 6 -14 14 -14 18 0 10 42 8 60
-3 8 -5 5 2 -8 16 -25 27 -30 47 -7 28 8 -6 20 -8 26 -4 9 5 10 2 6 -9 -3 -10
-2 -17 3 -17 13 0 13 23 -1 37 -8 8 -8 13 0 17 6 4 11 2 11 -3 0 -6 5 -11 11
-11 8 0 7 6 -2 17 -12 15 -12 16 4 10 10 -4 21 -7 23 -7 3 0 3 -4 0 -8 -3 -5
1 -9 8 -9 11 0 12 4 3 18 -6 10 -14 16 -17 14 -3 -2 -12 0 -19 4 -9 6 -10 11
-2 15 6 4 11 2 11 -4 0 -6 4 -9 9 -5 5 3 8 20 6 38 l-4 32 15 -28 c9 -16 20
-25 26 -20 9 5 9 8 0 11 -7 2 -12 11 -12 20 0 13 2 13 13 -3 10 -12 16 -14 21
-7 4 7 1 12 -6 12 -10 0 -9 3 2 10 9 5 19 5 26 0 6 -6 15 -6 20 -2 4 4 2 -1
-5 -10 -7 -10 -18 -15 -25 -11 -6 4 -5 0 2 -9 11 -14 10 -18 -5 -27 -10 -6
-14 -11 -10 -11 4 0 24 11 44 25 20 13 41 21 46 18 5 -3 -1 -12 -14 -20 -17
-10 -18 -12 -4 -7 11 4 28 6 38 6 15 -1 15 2 -5 19 -17 15 -18 19 -6 15 11 -3
29 5 45 19 16 13 22 25 15 25 -7 0 -11 4 -8 9 4 5 14 8 24 6 9 -2 19 -4 22 -4
3 -1 -2 -6 -10 -11 -9 -6 -10 -10 -3 -10 18 0 27 21 13 30 -8 5 -9 10 -2 14 6
4 15 -2 21 -11 6 -10 11 -13 11 -8 0 6 -5 16 -12 23 -9 9 -9 12 0 12 6 0 16
-8 22 -17 11 -17 11 -17 6 -1 -4 13 4 22 24 33 21 11 28 21 25 36 -3 15 0 19
11 15 8 -3 13 -2 10 3 -3 5 1 12 9 15 17 6 37 -31 27 -49 -3 -5 -1 -6 3 -2 12
10 14 77 3 77 -4 0 -8 -4 -8 -8 0 -5 -6 -9 -12 -9 -23 -1 -42 -8 -56 -21 -8
-7 -18 -10 -23 -7 -8 6 -13 -8 -10 -27 0 -5 -5 -7 -12 -5 -6 1 -11 -4 -10 -10
2 -7 -2 -13 -7 -13 -6 0 -10 7 -10 15 0 8 -5 15 -10 15 -6 0 -8 -11 -6 -25 3
-17 1 -23 -6 -19 -6 4 -8 2 -4 -4 3 -6 1 -14 -6 -18 -7 -4 -10 -3 -5 1 4 5 0
17 -9 27 -23 25 -3 48 37 43 20 -3 27 0 23 7 -4 7 -3 8 4 4 11 -7 17 6 13 28
-1 5 6 3 15 -5 16 -12 17 -12 11 3 -8 21 9 34 26 19 13 -10 37 -1 40 15 1 5
10 8 21 6 15 -2 16 0 7 12 -10 11 -10 19 -1 33 9 16 10 15 4 -6 l-6 -24 31 22
c17 13 29 27 26 32 -4 5 2 6 11 2 13 -5 15 -3 9 7 -5 8 -4 11 3 6 6 -3 18 1
27 10 10 11 13 19 6 23 -6 4 -2 12 9 19 12 7 20 8 20 2 0 -5 -4 -10 -8 -10 -4
0 -8 -10 -9 -21 -2 -20 1 -19 29 10 28 29 41 35 61 32 5 -1 6 9 3 21 l-6 23
11 -23 c7 -12 17 -22 24 -22 22 0 35 -22 24 -44 -10 -20 -10 -20 5 -2 12 14
13 23 5 33 -14 17 2 17 21 0 11 -9 11 -8 0 7 -14 18 -13 19 4 13 13 -5 24 0
39 19 19 25 21 25 27 8 7 -18 8 -17 14 4 7 21 22 27 55 22 9 -1 12 5 8 19 -3
12 2 26 10 33 14 11 15 10 9 -12 -6 -20 -5 -22 4 -8 6 10 18 15 28 12 9 -4 4
3 -13 13 -16 11 -36 18 -43 15 -10 -4 -11 -7 -2 -12 9 -5 9 -9 1 -14 -6 -4
-11 -1 -11 6 0 9 -3 9 -10 -2 -17 -26 -11 -5 10 36 12 22 18 28 14 14 -7 -25
-7 -25 15 -6 14 13 18 22 10 27 -8 5 -8 8 0 13 6 4 11 2 11 -5 0 -13 14 -3 16
12 1 5 2 11 3 14 0 3 9 1 20 -4 15 -8 20 -6 29 13 8 17 17 23 36 21 14 -2 28
1 32 6 5 9 -8 13 -32 10 -6 -1 -11 5 -11 13 0 13 4 13 29 0 25 -13 28 -13 28
1 0 8 5 15 10 15 7 0 6 -8 -1 -22 -7 -13 -12 -24 -11 -25 1 -2 2 -9 2 -15 0
-10 -2 -10 -9 0 -12 19 -16 19 -38 -1 -11 -9 -23 -14 -26 -10 -4 3 -7 2 -7 -4
0 -6 7 -13 15 -17 8 -3 15 -11 15 -17 0 -7 -8 -5 -20 6 -15 14 -20 15 -20 4 0
-11 -2 -11 -10 1 -8 13 -12 13 -27 -4 -17 -18 -17 -18 7 -11 20 6 22 5 13 -5
-6 -7 -9 -19 -6 -26 4 -10 0 -12 -11 -8 -9 3 -14 10 -11 14 3 5 1 12 -5 15 -6
4 -9 1 -8 -7 2 -7 -3 -12 -10 -10 -8 1 -11 -2 -7 -8 3 -6 11 -8 16 -5 5 4 9 2
9 -2 0 -5 11 -9 24 -9 17 0 22 4 18 15 -4 10 -1 12 9 6 11 -7 12 -6 2 7 -13
15 -8 28 9 28 5 0 7 -4 4 -9 -4 -5 1 -8 10 -7 22 3 35 28 22 43 -8 10 -5 13
10 13 17 0 20 -5 16 -27 -3 -20 -2 -24 5 -13 5 8 8 17 5 21 -2 4 0 10 6 14 5
3 10 0 10 -7 0 -8 5 -6 11 5 5 9 7 22 4 27 -10 16 5 49 20 44 18 -7 30 15 15
29 -10 9 -12 8 -7 -6 4 -10 3 -16 -2 -13 -5 3 -11 15 -14 26 -4 17 -2 18 14
10 13 -7 25 -7 39 2 26 17 26 32 -1 18 -11 -7 -23 -9 -27 -6 -3 3 0 6 6 6 6 0
18 7 26 16 12 12 16 12 18 2 0 -7 2 -17 3 -23 2 -5 3 -16 4 -24 1 -11 5 -10
16 5 14 18 15 17 10 -11 -5 -27 -4 -28 5 -7 6 14 15 21 22 17 7 -4 4 0 -6 9
-10 8 -23 13 -28 10 -5 -3 -7 -2 -6 3 1 4 -3 19 -10 33 -13 24 -12 24 3 5 9
-11 23 -19 32 -17 8 2 12 -1 9 -6 -3 -6 1 -13 9 -16 13 -5 14 -2 4 17 -11 20
-11 21 5 8 10 -8 15 -23 13 -33 -3 -10 -1 -15 4 -12 6 3 8 19 5 35 -3 20 0 29
10 29 8 0 11 -6 7 -17 -4 -11 -3 -14 6 -9 6 4 9 16 6 27 -4 12 -1 21 9 25 9 3
14 10 11 14 -3 5 0 12 7 16 7 4 10 4 6 -1 -4 -4 -2 -15 5 -23 10 -13 9 -14 -2
-7 -10 5 -12 4 -7 -3 4 -7 2 -10 -6 -9 -7 2 -10 2 -5 0 4 -3 5 -8 3 -12 -3 -4
6 -8 20 -9 13 -1 24 3 24 8 0 5 -8 6 -17 3 -16 -6 -16 -5 -5 10 13 15 16 15
38 0 17 -11 28 -13 35 -6 8 8 7 13 -2 18 -8 6 -10 4 -4 -5 5 -8 3 -11 -5 -8
-7 2 -14 12 -16 22 -2 12 2 16 12 12 9 -3 12 -1 9 4 -3 6 -1 10 6 10 7 0 8 4
2 13 -5 6 -10 23 -11 37 l-1 25 14 -25 c13 -22 20 -21 16 3 -1 5 3 6 9 2 5 -3
10 -1 10 4 0 6 8 11 18 11 15 1 15 2 -3 16 -19 15 -19 15 -1 12 10 -2 21 2 23
8 2 7 -6 10 -22 8 -15 -1 -24 0 -21 4 13 12 64 9 59 -4 -4 -11 5 -12 35 -5 2
1 -4 8 -13 17 -9 9 -13 19 -9 23 4 3 9 0 11 -7 3 -6 10 -9 15 -6 7 5 8 2 3 -6
-6 -10 -4 -12 9 -7 12 5 16 3 14 -5 -3 -7 -10 -14 -16 -14 -7 -1 -15 -3 -19
-4 -5 -1 -11 -2 -16 -1 -4 0 -6 -4 -5 -11 2 -7 -3 -12 -10 -13 -7 0 -16 -6
-21 -13 -5 -8 -12 -14 -17 -15 -5 -1 -8 -6 -6 -10 1 -5 -3 -5 -10 -1 -10 6
-10 5 0 -8 13 -16 56 -33 47 -18 -7 11 5 41 14 36 11 -7 36 12 28 21 -5 4 -12
1 -17 -7 -6 -9 -10 -10 -10 -3 0 13 17 26 38 29 6 1 12 -2 12 -7 0 -5 5 -9 11
-9 8 0 7 5 -1 16 -11 13 -10 16 8 20 23 7 36 30 21 40 -6 3 -13 3 -16 0 -4 -3
-1 -6 6 -6 7 0 9 -5 5 -11 -4 -8 -9 -7 -15 2 -11 19 -1 31 21 24 15 -5 18 -1
16 19 -2 15 1 23 7 19 5 -3 13 1 18 8 7 10 8 8 6 -9 -2 -12 -9 -28 -15 -34
-17 -17 -15 -27 7 -25 11 0 18 4 15 8 -2 4 0 10 4 13 9 5 9 34 0 66 -3 8 -3
12 -1 7 3 -4 8 -5 13 -2 5 3 7 -6 6 -20 -2 -15 1 -22 7 -18 7 4 8 -1 3 -13 -5
-10 -10 -28 -12 -39 -2 -11 1 -7 7 8 10 26 12 27 26 10 13 -16 13 -16 3 5 -10
20 -9 26 9 39 22 15 28 33 10 33 -5 0 -8 -4 -4 -9 3 -6 -3 -14 -13 -20 -14 -7
-19 -6 -19 4 0 7 6 11 13 8 8 -3 11 2 10 13 -2 10 -9 20 -16 22 -8 3 -10 0 -5
-9 5 -8 4 -10 0 -6 -5 4 -10 14 -11 23 -2 14 0 14 21 0 32 -21 41 -20 24 1
-12 14 -12 16 0 8 11 -6 13 -4 9 7 -5 11 0 15 15 13 12 -1 23 -4 25 -5 2 -3
17 -7 32 -9 6 -1 6 -8 -2 -20 -7 -11 -16 -17 -20 -14 -5 2 -3 12 4 21 7 10 9
14 4 10 -5 -4 -18 -3 -28 3 -16 9 -19 8 -15 -3 2 -7 10 -12 17 -10 11 3 11 0
1 -12 -7 -9 -18 -13 -24 -9 -6 3 -7 1 -3 -6 4 -6 1 -23 -8 -36 -23 -34 -20
-43 4 -12 11 14 20 31 20 39 1 9 4 8 13 -4 12 -15 15 -14 32 12 11 16 22 27
26 24 4 -2 10 0 13 5 5 8 -20 36 -33 36 -3 0 -5 3 -3 8 3 11 -16 8 -21 -3 -3
-6 -4 -5 -3 2 4 22 23 19 56 -12 18 -16 30 -23 26 -15 -3 8 -1 15 4 15 6 0 10
-4 10 -10 0 -5 5 -10 11 -10 8 0 7 5 -1 15 -7 9 -19 14 -26 11 -7 -3 -16 -1
-19 4 -4 6 5 10 19 10 14 0 28 -4 31 -10 3 -5 12 -10 18 -10 7 0 6 4 -3 10
-12 8 -12 10 5 10 19 1 19 2 -2 10 -20 8 -34 8 -72 -2 -7 -1 -15 3 -16 10 -2
7 -1 8 1 3 3 -6 12 -7 20 -4 7 3 12 8 9 12 -6 10 27 10 40 1 6 -4 18 -6 28 -5
9 2 17 0 17 -5 0 -4 7 -10 14 -13 11 -4 13 -1 9 10 -5 11 -3 14 6 9 10 -6 10
-4 0 12 -7 12 -17 18 -22 15 -5 -3 -3 -9 4 -14 10 -6 7 -8 -9 -6 -12 0 -22 5
-22 9 0 4 -5 7 -11 6 -6 -2 -14 4 -16 12 -3 9 -1 11 4 5 4 -5 17 -12 27 -13
18 -3 18 -2 5 14 -12 15 -12 16 0 9 10 -6 13 -4 9 6 -4 10 1 15 16 16 11 0 15
-1 9 -4 -7 -3 -13 -8 -13 -12 0 -14 25 -8 45 12 17 17 17 19 3 14 -10 -3 -20
-2 -23 3 -3 4 6 7 20 5 15 -1 29 4 35 14 7 12 9 13 10 2 0 -8 3 -11 8 -7 12
13 8 30 -10 44 -10 7 -18 19 -17 25 0 9 2 8 6 -1 2 -7 14 -17 25 -23 16 -9 24
-6 44 12 15 14 24 18 24 9 0 -7 3 -10 8 -6 7 7 8 11 11 37 0 5 6 7 12 3 8 -4
7 -9 -2 -15 -11 -7 -11 -9 1 -9 13 0 13 -1 0 -10 -13 -8 -12 -10 3 -10 9 0 17
6 17 13 0 8 4 7 10 -3 5 -8 10 -10 10 -5 0 6 5 3 10 -5 6 -9 10 -10 10 -3 0
13 -34 36 -42 28 -2 -2 -4 6 -3 20 0 13 4 27 9 32 5 5 7 1 3 -9 -4 -11 3 -22
21 -34 15 -9 24 -13 20 -9 -4 4 0 14 10 22 15 12 14 13 -10 9 -25 -4 -27 -2
-18 14 14 25 13 30 -5 24 -8 -4 -15 -1 -15 5 0 6 3 11 8 10 4 -1 17 2 30 6 26
9 30 25 5 25 -9 0 -14 3 -10 6 3 4 20 2 36 -4 17 -6 33 -7 36 -2 3 5 14 7 25
5 14 -3 17 1 13 13 -4 10 -8 12 -11 4 -2 -7 -8 -10 -12 -7 -5 3 -7 12 -4 20 4
8 10 13 14 10 5 -3 19 13 31 35 24 42 33 48 45 29 10 -17 25 12 18 36 -5 20
-5 20 10 1 9 -10 13 -24 9 -30 -3 -6 -3 -8 2 -4 4 4 14 3 20 -2 18 -15 14 42
-4 64 -12 14 -12 16 1 11 13 -5 16 2 15 37 0 24 -5 46 -11 50 -8 5 -7 8 1 8
10 0 12 117 12 515 1 283 -2 515 -6 515 -4 0 -15 -8 -25 -17 -17 -15 -18 -15
-13 0 4 9 15 19 25 22 29 9 19 85 -11 85 -5 0 -9 -5 -9 -10 0 -6 5 -9 12 -8
11 3 13 -8 9 -44 0 -6 -4 -9 -7 -5 -7 7 -34 -15 -29 -23 2 -3 -5 -6 -16 -6
-20 0 -19 1 24 33 15 12 23 24 18 27 -5 4 -17 -2 -27 -11 -16 -16 -16 -16 -10
5 5 13 3 22 -3 22 -11 0 -15 -13 -12 -37 1 -6 -3 -15 -9 -18 -6 -4 -11 -1 -9
6 3 26 -1 40 -10 35 -12 -8 -22 20 -14 42 6 15 3 14 -18 -3 -16 -14 -19 -15
-11 -3 11 14 10 20 -7 37 -12 12 -21 27 -21 35 0 7 -7 19 -15 26 -8 7 -12 16
-9 21 3 5 0 18 -7 30 -9 17 -8 20 1 14 10 -6 11 -1 6 21 -6 28 -6 28 9 9 15
-19 15 -19 12 5 -3 16 -10 24 -20 22 -11 -2 -15 3 -12 16 1 10 -6 29 -17 43
l-20 24 16 -27 c19 -32 4 -38 -17 -7 -9 13 -17 16 -22 10 -8 -14 3 -33 15 -26
5 3 11 1 15 -5 9 -14 -18 -13 -33 2 -7 7 -12 8 -12 2 0 -6 5 -15 11 -21 7 -7
6 -12 -6 -17 -9 -3 -14 -2 -10 3 10 16 -6 40 -23 34 -13 -4 -14 -3 -3 5 9 7
10 12 2 16 -6 4 -8 12 -5 18 4 7 -2 8 -17 3 -23 -7 -24 -7 -4 9 12 9 15 15 7
16 -7 0 -10 5 -6 12 4 7 3 8 -5 4 -6 -4 -9 -12 -6 -17 3 -5 -1 -6 -10 -3 -9 4
-15 3 -14 -2 5 -28 -4 -29 -31 -6 -17 15 -38 27 -48 27 -9 0 -18 7 -18 15 -1
8 -2 19 -3 23 0 5 -8 1 -17 -7 -18 -18 -30 -20 -39 -6 -3 5 0 7 8 4 8 -3 18
-1 22 5 3 6 -1 11 -9 11 -9 0 -16 6 -16 13 0 8 -4 7 -11 -3 -8 -12 -10 -12 -7
-1 2 8 12 15 21 17 9 1 15 -2 11 -7 -3 -5 0 -9 5 -9 6 0 11 5 11 10 0 6 5 10
11 10 8 0 8 -4 -1 -15 -10 -12 -8 -14 9 -10 14 2 19 0 15 -7 -5 -7 -2 -8 6 -3
9 6 11 4 5 -5 -6 -9 -4 -11 5 -5 9 6 11 4 5 -5 -5 -9 -4 -11 4 -6 6 4 18 2 26
-4 10 -8 15 -9 15 -2 0 6 6 12 13 15 6 2 1 2 -12 0 -22 -4 -23 -2 -11 12 11
14 10 17 -8 22 -12 3 -22 10 -22 15 0 6 -6 6 -14 -1 -10 -8 -16 -9 -21 -1 -3
5 -1 10 5 10 6 0 8 5 4 11 -3 6 -9 7 -13 2 -3 -5 -19 -10 -35 -11 -16 -1 -35
-7 -42 -13 -11 -9 -20 -7 -38 5 -14 8 -26 12 -29 8 -2 -4 -2 -1 0 6 1 8 -3 12
-9 9 -7 -2 -12 -10 -11 -16 4 -16 -14 -13 -21 4 -3 8 0 14 6 12 6 -1 12 3 15
9 2 6 -4 11 -13 11 -9 0 -19 -9 -22 -21 -5 -18 -6 -19 -12 -2 -6 17 -7 17 -22
2 -15 -15 -17 -15 -23 4 -7 21 -20 26 -30 11 -3 -6 -14 -9 -25 -8 -10 1 -17 3
-15 5 6 6 -22 32 -35 32 -6 0 -8 -4 -5 -10 3 -5 1 -10 -4 -10 -15 0 -14 15 2
29 10 8 17 7 27 -2 10 -10 11 -9 5 2 -5 10 -4 12 4 7 6 -4 8 -12 5 -18 -4 -7
-2 -8 5 -4 6 4 9 12 6 17 -4 5 -2 9 4 9 17 0 21 -18 5 -24 -8 -3 -12 -10 -9
-16 9 -14 25 -12 22 3 -1 6 6 11 16 9 9 -2 17 2 17 8 0 6 -4 9 -9 5 -5 -3 -12
-1 -16 5 -3 5 -1 10 4 10 14 0 14 27 1 35 -5 3 -7 0 -4 -9 4 -11 0 -14 -17
-11 -12 3 -29 -1 -37 -8 -13 -10 -14 -8 -8 13 6 23 6 23 -5 5 -15 -24 -30 -35
-40 -29 -4 2 -9 -3 -13 -11 -3 -8 0 -15 6 -15 6 0 8 -3 4 -7 -4 -5 -14 1 -22
11 -15 21 -31 16 -18 -6 11 -16 15 -42 6 -33 -4 4 -8 11 -8 16 -1 5 -3 10 -4
12 -8 8 -7 58 1 62 5 3 6 -1 3 -9 -4 -10 0 -14 15 -13 12 1 21 6 21 12 0 5 4
4 9 -4 6 -9 11 -10 15 -2 4 6 2 11 -4 11 -6 0 -8 5 -4 13 5 8 2 7 -9 -2 -15
-12 -20 -11 -37 4 -11 10 -17 22 -13 28 3 6 1 7 -6 3 -9 -6 -9 -11 1 -24 11
-14 10 -15 -6 -9 -10 4 -25 2 -32 -4 -17 -14 -18 2 -1 20 10 11 9 12 -2 6 -11
-6 -13 -4 -7 10 5 15 4 16 -9 5 -14 -12 -19 -7 -16 13 1 5 -4 5 -10 1 -9 -5
-5 -13 10 -26 17 -13 19 -18 8 -18 -9 0 -19 5 -22 10 -5 8 -12 7 -23 -2 -13
-11 -15 -11 -10 4 8 21 -19 33 -38 17 -10 -8 -14 -8 -14 -1 0 6 8 16 18 21 9
6 12 11 5 11 -6 0 -15 -4 -18 -10 -9 -15 -25 -12 -25 4 0 8 -7 17 -16 20 -9 3
-12 11 -8 18 5 10 3 9 -7 0 -12 -11 -11 -15 4 -23 17 -10 24 -30 10 -28 -27 4
-42 -3 -38 -19 2 -10 -1 -25 -6 -33 -7 -10 -8 -6 -5 14 3 19 1 27 -7 24 -7 -2
-11 -13 -9 -23 2 -15 1 -16 -7 -4 -7 9 -6 19 1 27 7 8 7 13 0 13 -5 0 -15 -7
-22 -15 -7 -8 -17 -15 -23 -15 -6 0 -1 7 11 16 12 8 22 20 22 26 0 6 -9 3 -20
-7 -18 -17 -25 -14 -21 9 1 5 -5 6 -14 3 -22 -9 -18 1 6 14 17 9 20 8 13 -3
-6 -9 -3 -9 11 2 10 8 16 10 12 3 -5 -8 -1 -11 13 -8 13 3 18 0 14 -7 -5 -7
-2 -8 6 -3 9 5 11 4 6 -3 -4 -7 -2 -12 3 -12 6 0 11 5 11 11 0 5 4 8 10 4 5
-3 3 7 -5 21 -8 15 -12 31 -9 36 3 4 1 8 -4 8 -6 0 -13 -7 -16 -16 -3 -8 -2
-12 4 -9 6 3 10 -1 10 -9 0 -21 -20 -16 -46 11 -12 12 -24 20 -27 17 -2 -3
-17 -7 -32 -10 -25 -4 -27 -3 -15 11 14 16 8 31 -8 21 -6 -3 -9 -14 -7 -24 2
-9 4 -20 4 -24 1 -7 17 -5 44 7 33 14 29 -3 -5 -19 -21 -11 -34 -13 -36 -6 -2
5 -8 8 -13 5 -5 -4 -7 0 -4 7 3 7 -4 28 -16 47 -15 25 -23 31 -32 22 -15 -15
-30 -14 -21 2 6 10 4 10 -7 0 -23 -22 -33 -14 -13 10 l19 22 -26 -22 c-14 -13
-32 -23 -40 -23 -9 0 -5 8 11 20 14 11 20 20 13 20 -6 0 -19 -8 -29 -17 -10
-10 -19 -17 -21 -15 -2 1 -3 0 -3 -3 0 -3 3 -5 6 -4 4 0 10 -5 15 -12 6 -10
11 -10 25 2 14 11 16 11 10 1 -7 -11 -4 -12 13 -3 11 7 21 8 21 3 0 -10 -38
-25 -55 -22 -5 1 -15 -7 -22 -16 -7 -10 -13 -13 -13 -8 0 6 5 15 12 22 15 15
3 16 -22 2 -15 -8 -20 -6 -25 10 -7 23 -21 26 -28 8 -3 -10 -9 -9 -22 3 -15
15 -14 16 19 14 25 -1 41 5 54 19 9 10 11 16 5 12 -8 -4 -13 -2 -13 5 0 7 -6
4 -14 -7 -8 -11 -18 -15 -23 -10 -4 5 -2 11 5 13 17 6 15 20 -2 20 -8 0 -15
-3 -14 -6 2 -19 -4 -28 -17 -28 -18 0 -20 14 -2 20 6 2 8 8 4 13 -13 13 -27
-18 -22 -48 5 -25 -2 -32 -22 -25 -5 1 -7 5 -5 10 3 9 -12 9 -21 0 -4 -3 -2
-12 4 -19 7 -8 6 -14 -2 -20 -7 -4 -9 -3 -6 3 3 5 -3 17 -14 26 -19 17 -18 43
2 31 5 -3 6 -10 3 -16 -4 -7 -2 -8 5 -4 6 4 9 12 6 17 -10 15 7 10 26 -7 16
-15 17 -14 12 5 -3 12 -8 19 -11 16 -3 -2 -11 0 -19 6 -10 9 -13 8 -13 0 0 -7
-5 -9 -11 -5 -8 4 -7 9 2 15 7 4 10 11 6 16 -9 8 -28 -17 -21 -28 2 -4 -5 -7
-16 -6 -21 1 -29 17 -8 17 6 0 8 3 4 7 -4 5 -14 0 -21 -11 -8 -10 -19 -15 -25
-11 -9 6 -9 10 1 16 7 4 10 11 6 16 -9 9 -28 -17 -21 -29 3 -4 1 -8 -4 -8 -5
0 -9 -7 -9 -15 0 -9 5 -14 11 -12 6 3 10 10 8 17 -3 11 0 11 12 0 9 -7 16 -8
16 -3 0 5 6 10 14 10 7 0 13 -7 11 -16 -1 -9 5 -22 14 -29 14 -11 13 -11 -7
-2 -12 6 -20 15 -17 21 4 5 -4 7 -17 5 -13 -3 -23 -5 -23 -7 0 -9 -54 -4 -70
7 -11 8 -14 14 -8 14 7 0 15 -4 18 -10 7 -12 26 -14 24 -2 -1 4 0 9 1 12 7 19
7 40 -1 40 -8 0 -13 -13 -11 -31 1 -3 -12 -6 -28 -6 -16 0 -27 3 -25 7 2 4 -2
16 -10 26 -11 13 -13 14 -10 3z m9 -30 c-2 -4 3 -12 11 -19 8 -7 15 -17 15
-23 0 -6 -7 -2 -16 9 -15 19 -15 19 -9 -2 3 -14 -1 -26 -12 -35 -15 -11 -16
-11 -5 1 6 8 12 18 12 23 0 6 -5 5 -12 0 -20 -15 -50 -24 -43 -13 3 6 13 10
21 10 8 0 12 5 9 11 -5 7 -15 4 -32 -6 -24 -16 -26 -16 -42 0 -9 10 -11 15 -5
12 6 -4 26 4 44 18 29 21 75 31 64 14z m510 -50 c-3 -5 0 -9 5 -9 7 0 7 -7 -1
-20 -7 -11 -17 -20 -22 -20 -6 0 -5 5 2 12 16 16 15 31 0 21 -19 -11 -39 -13
-32 -2 3 5 0 9 -7 9 -6 0 -9 -8 -7 -18 4 -12 -1 -18 -13 -18 -12 0 -15 4 -9
12 6 6 7 13 4 17 -3 3 4 8 15 12 12 3 26 16 32 27 11 21 12 21 25 3 7 -10 11
-22 8 -26z m-444 -14 c13 -14 21 -25 18 -25 -2 0 -15 11 -28 25 -13 14 -21 25
-18 25 2 0 15 -11 28 -25z m75 15 c4 -6 -1 -7 -11 -3 -13 5 -15 3 -9 -7 5 -9
4 -11 -4 -6 -6 4 -9 12 -6 17 8 12 22 12 30 -1z m145 -9 c0 -6 -4 -12 -8 -15
-5 -3 -9 1 -9 9 0 8 4 15 9 15 4 0 8 -4 8 -9z m37 -4 c0 -8 -6 -14 -13 -14 -7
0 -10 6 -7 14 3 7 8 13 12 13 4 0 8 -6 8 -13z m-302 -16 c3 -5 2 -12 -3 -15
-5 -3 -9 1 -9 9 0 17 3 19 12 6z m515 -30 c0 -5 -7 -11 -14 -14 -10 -4 -13 -1
-9 9 6 15 23 19 23 5z m-630 -15 c0 -3 -4 -8 -10 -11 -5 -3 -10 -1 -10 4 0 6
5 11 10 11 6 0 10 -2 10 -4z m675 -6 c-3 -5 -1 -10 5 -10 6 0 8 -5 4 -11 -4
-8 -9 -7 -15 2 -7 12 -3 29 7 29 3 0 2 -4 -1 -10z m178 -8 c10 -9 17 -10 22
-2 10 16 22 12 28 -9 3 -13 -3 -27 -17 -38 l-21 -18 19 23 c23 26 7 30 -17 4
-13 -15 -14 -21 -4 -32 10 -12 9 -12 -5 -1 -9 7 -23 10 -30 6 -7 -4 -2 2 11
13 16 13 20 21 12 26 -6 4 -11 2 -11 -3 0 -6 -9 -2 -20 9 -33 33 -4 52 33 22z
m-1022 -29 c-6 -10 -11 -13 -11 -7 0 7 -7 14 -15 17 -12 5 -12 2 -3 -19 8 -18
9 -27 0 -36 -8 -8 -9 -5 -5 11 3 13 1 21 -6 21 -7 0 -9 -5 -5 -12 6 -9 3 -9
-9 0 -13 11 -14 17 -4 33 7 11 17 17 24 15 7 -3 15 0 19 5 12 20 27 -7 15 -28z
m1113 -5 c-5 -7 -2 -9 8 -5 9 3 20 1 26 -5 6 -6 12 -6 16 1 12 19 24 12 24
-14 0 -15 -5 -24 -12 -22 -6 2 -23 -2 -37 -9 -21 -11 -26 -11 -26 1 0 8 4 12
8 10 11 -7 40 6 34 15 -2 4 -16 6 -30 5 -14 -2 -23 1 -19 6 3 5 0 9 -5 9 -6 0
-11 -8 -12 -17 0 -10 -3 -13 -5 -6 -7 16 15 55 27 48 5 -4 6 -11 3 -17z m-207
6 c-3 -3 -12 -4 -19 -1 -8 3 -5 6 6 6 11 1 17 -2 13 -5z m74 -26 c-10 -11 -11
-9 -5 6 6 15 4 17 -6 11 -9 -6 -11 -4 -5 4 5 9 10 10 18 2 8 -8 7 -14 -2 -23z
m-956 -8 c2 -12 1 -20 -2 -16 -4 4 -8 16 -10 28 -2 12 -1 19 2 16 3 -3 8 -16
10 -28z m-160 10 c3 -5 1 -10 -4 -10 -6 0 -11 5 -11 10 0 6 2 10 4 10 3 0 8
-4 11 -10z m1205 -20 c0 -5 -5 -10 -11 -10 -5 0 -7 5 -4 10 3 6 8 10 11 10 2
0 4 -4 4 -10z m-1295 -12 c5 4 5 1 1 -5 -4 -7 -3 -13 3 -13 5 0 11 6 14 13 2
6 4 -3 4 -20 0 -18 -4 -33 -9 -33 -5 0 -7 4 -3 9 3 5 1 12 -5 16 -5 3 -10 -2
-11 -12 0 -16 -1 -16 -8 1 -5 14 -10 16 -15 8 -4 -7 -12 -10 -17 -7 -8 5 -13
-7 -11 -26 1 -3 -14 -5 -32 -4 -19 2 -33 -2 -33 -8 0 -7 -2 -19 -4 -27 -2 -8
2 -14 9 -12 8 1 11 -2 6 -9 -5 -9 -12 -6 -25 9 -22 29 -30 28 -25 -2 5 -27 -2
-39 -16 -30 -5 3 -4 12 3 20 14 17 -2 19 -19 2 -9 -9 -8 -16 6 -32 17 -21 17
-21 -4 -3 -22 18 -36 22 -31 10 1 -5 -2 -9 -7 -10 -5 -1 -13 -7 -18 -15 -8
-10 -9 -9 -5 4 4 12 0 16 -14 15 -19 -1 -28 -17 -9 -17 6 0 10 -5 10 -11 0 -8
-5 -8 -15 1 -12 10 -18 10 -30 0 -19 -16 -28 -9 -19 14 4 9 13 15 20 12 7 -3
16 -1 19 5 4 5 11 7 16 4 5 -4 9 -1 9 5 0 6 4 9 9 5 6 -3 14 3 20 12 6 10 11
12 11 6 0 -7 5 -13 11 -13 5 0 8 4 4 9 -3 5 -1 12 5 16 6 4 7 11 4 17 -4 6 -2
8 4 4 6 -3 19 5 30 19 11 14 23 21 27 16 3 -6 12 -8 20 -5 8 4 13 10 10 15 -6
9 29 31 37 24 3 -3 13 4 23 15 12 14 22 17 30 10 6 -5 16 -6 20 -2z m1415 -30
c0 -4 -4 -8 -9 -8 -6 0 -12 4 -15 8 -3 5 1 9 9 9 8 0 15 -4 15 -9z m119 -11
c8 -10 7 -14 -2 -14 -8 0 -14 6 -14 14 0 7 1 13 2 13 2 0 8 -6 14 -13z m76 -6
c3 -5 2 -12 -3 -15 -5 -3 -9 1 -9 9 0 17 3 19 12 6z m-1635 -21 c0 -5 -4 -10
-10 -10 -5 0 -10 5 -10 10 0 6 5 10 10 10 6 0 10 -4 10 -10z m100 0 c0 -5 -2
-10 -4 -10 -3 0 -8 5 -11 10 -3 6 -1 10 4 10 6 0 11 -4 11 -10z m1650 -15 c0
-2 -6 -8 -13 -14 -10 -8 -14 -7 -14 2 0 8 6 14 14 14 7 0 13 -1 13 -2z m213
-5 c8 0 7 -4 -1 -12 -9 -9 -16 -8 -30 6 -16 18 -16 19 1 12 10 -3 24 -6 30 -6z
m-166 -27 c0 -9 -4 -10 -14 -2 -7 6 -13 12 -13 14 0 1 6 2 13 2 8 0 14 -6 14
-14z m-1860 -28 c0 -8 -4 -12 -9 -9 -5 3 -6 10 -3 15 9 13 12 11 12 -6z m1868
-5 c3 -6 -1 -7 -9 -4 -18 7 -21 14 -7 14 6 0 13 -4 16 -10z m90 0 c3 -6 -1 -7
-9 -4 -18 7 -21 14 -7 14 6 0 13 -4 16 -10z m45 -14 c0 -2 -7 -7 -16 -10 -8
-3 -12 -2 -9 4 6 10 25 14 25 6z m-2303 -23 c-2 -2 -14 -6 -27 -8 -12 -2 -28
-9 -36 -16 -8 -6 -14 -8 -14 -4 0 15 45 42 62 37 10 -2 17 -6 15 -9z m2338 -2
c3 -5 2 -12 -3 -15 -5 -3 -9 1 -9 9 0 17 3 19 12 6z m-2160 -10 c3 -5 2 -12
-3 -15 -5 -3 -9 1 -9 9 0 17 3 19 12 6z m2102 -6 c0 -8 -4 -12 -9 -9 -5 3 -6
10 -3 15 9 13 12 11 12 -6z m-2171 -13 c1 -7 0 -8 -3 -2 -2 5 -9 8 -14 4 -5
-3 -9 0 -9 6 0 15 23 7 26 -8z m131 3 c0 -8 -4 -12 -9 -9 -5 3 -6 10 -3 15 9
13 12 11 12 -6z m2163 5 c0 -5 -7 -7 -15 -4 -8 4 -15 8 -15 10 0 2 7 4 15 4 8
0 15 -4 15 -10z m-2360 -20 c-14 -9 -7 -14 13 -11 5 1 6 -3 2 -9 -5 -8 -11 -8
-21 1 -15 12 -10 29 9 29 7 0 6 -4 -3 -10z m2320 6 c0 -3 -4 -8 -10 -11 -5 -3
-10 -1 -10 4 0 6 5 11 10 11 6 0 10 -2 10 -4z m-2354 -29 c4 -3 -4 -4 -16 -2
-30 6 -40 16 -12 12 12 -2 24 -6 28 -10z m2414 9 c0 -3 -4 -8 -10 -11 -5 -3
-10 -1 -10 4 0 6 5 11 10 11 6 0 10 -2 10 -4z m96 -18 c-1 -13 3 -26 9 -30 5
-4 0 -6 -12 -5 -12 0 -19 5 -16 10 2 4 -1 15 -9 24 -9 12 -9 15 0 9 6 -4 12
-2 12 3 0 6 4 11 9 11 4 0 8 -10 7 -22z m-2583 -18 c-3 -12 -8 -19 -11 -16 -5
6 5 36 12 36 2 0 2 -9 -1 -20z m28 7 c-6 -8 -7 -18 -3 -22 4 -5 1 -5 -6 -1
-10 6 -10 11 -1 22 6 8 14 14 16 14 3 0 0 -6 -6 -13z m2516 -29 c-3 -7 -5 -2
-5 12 0 14 2 19 5 13 2 -7 2 -19 0 -25z m-2623 -24 c3 -8 2 -12 -4 -9 -6 3
-10 10 -10 16 0 14 7 11 14 -7z m41 -23 c3 -5 2 -12 -3 -15 -5 -3 -9 1 -9 9 0
17 3 19 12 6z m2622 -8 c0 -8 -4 -10 -12 -3 -7 5 -16 6 -20 2 -5 -4 -5 -2 -2
4 9 15 34 13 34 -3z m23 -43 c6 -11 8 -20 6 -20 -3 0 -10 9 -16 20 -6 11 -8
20 -6 20 3 0 10 -9 16 -20z m-2878 -7 c-6 -2 -9 -10 -6 -15 4 -7 2 -8 -5 -4
-13 9 -5 26 12 25 9 0 8 -2 -1 -6z m73 -2 c-9 -8 -36 -10 -30 -2 2 4 11 8 20
8 8 0 13 -3 10 -6z m-275 -41 c0 -5 -5 -10 -11 -10 -5 0 -7 5 -4 10 3 6 8 10
11 10 2 0 4 -4 4 -10z m120 0 c0 -5 -4 -10 -10 -10 -5 0 -10 5 -10 10 0 6 5
10 10 10 6 0 10 -4 10 -10z m-26 -35 c-4 -8 -8 -15 -10 -15 -2 0 -4 7 -4 15 0
8 4 15 10 15 5 0 7 -7 4 -15z m-179 -5 c10 8 15 8 20 -1 6 -8 10 -7 16 2 7 11
9 10 9 -4 0 -10 4 -16 9 -12 6 3 14 -3 20 -13 7 -14 6 -19 -4 -19 -7 0 -11 5
-9 12 3 6 -5 11 -16 12 -11 1 -18 -2 -15 -7 3 -5 0 -12 -6 -16 -6 -3 -14 -2
-18 4 -6 10 -25 -3 -29 -20 -1 -5 -7 -8 -14 -7 -6 0 -15 -6 -19 -13 -7 -10 -9
-10 -9 0 0 7 7 15 15 18 11 5 12 10 6 18 -7 9 -5 20 6 36 10 15 18 19 21 11 3
-9 7 -9 17 -1z m139 -6 c3 -8 2 -12 -4 -9 -6 3 -10 10 -10 16 0 14 7 11 14 -7z
m71 -14 c3 -6 -1 -7 -9 -4 -18 7 -21 14 -7 14 6 0 13 -4 16 -10z m3005 -16 c0
-8 -19 -13 -24 -6 -3 5 1 9 9 9 8 0 15 -2 15 -3z m40 -9 c0 -2 -6 -5 -13 -8
-8 -3 -14 1 -14 8 0 7 6 11 14 8 7 -3 13 -6 13 -8z m-3220 -24 c-5 -11 -15
-23 -21 -27 -6 -3 -3 5 6 20 20 30 30 35 15 7z m84 -17 c3 -8 2 -12 -4 -9 -6
3 -10 10 -10 16 0 14 7 11 14 -7z m3141 -4 c-3 -4 1 -11 7 -14 7 -2 3 -4 -9
-2 -12 1 -26 6 -30 10 -5 4 -1 6 7 4 8 -2 14 3 12 10 -1 8 2 11 8 7 6 -3 8
-10 5 -15z m-3319 -30 c0 -12 -4 -16 -9 -11 -5 5 -6 14 -3 20 10 15 12 14 12
-9z m3362 -5 c-3 -3 -9 2 -12 12 -6 14 -5 15 5 6 7 -7 10 -15 7 -18z m-3513
-14 c-6 -5 -25 10 -25 20 0 5 6 4 14 -3 8 -7 12 -15 11 -17z m56 -18 c13 -16
12 -17 -3 -4 -10 7 -18 15 -18 17 0 8 8 3 21 -13z m-216 -103 c-3 -5 -12 -10
-18 -10 -7 0 -6 4 3 10 19 12 23 12 15 0z m-70 -59 c3 -5 2 -12 -3 -15 -5 -3
-9 1 -9 9 0 17 3 19 12 6z m-292 -36 c-3 -8 -10 -15 -17 -15 -7 0 -7 -3 -1 -8
6 -4 17 -16 25 -27 11 -15 7 -14 -16 5 -20 16 -27 28 -20 32 6 4 7 8 2 8 -5 0
-3 7 4 15 15 18 31 10 23 -10z m114 -20 c0 -8 -4 -12 -9 -9 -5 3 -6 10 -3 15
9 13 12 11 12 -6z m3958 -34 c3 -5 2 -12 -3 -15 -5 -3 -9 1 -9 9 0 17 3 19 12
6z m-4015 -11 c0 -5 -2 -10 -4 -10 -3 0 -8 5 -11 10 -3 6 -1 10 4 10 6 0 11
-4 11 -10z m4014 -46 c3 -8 2 -12 -4 -9 -6 3 -10 10 -10 16 0 14 7 11 14 -7z
m-4187 -30 c-3 -3 -12 -4 -19 -1 -8 3 -5 6 6 6 11 1 17 -2 13 -5z m-25 -21
c-6 -2 -10 -9 -7 -13 3 -5 1 -11 -4 -14 -7 -5 -8 11 -2 32 1 1 7 2 14 1 9 0 9
-2 -1 -6z m4212 -9 c3 -8 2 -12 -4 -9 -6 3 -10 10 -10 16 0 14 7 11 14 -7z
m-4243 -41 c13 -16 12 -17 -3 -4 -10 7 -18 15 -18 17 0 8 8 3 21 -13z m-127
-28 c-4 -8 -1 -21 4 -28 7 -8 7 -18 2 -27 -6 -9 -10 -10 -10 -3 0 6 -8 10 -17
8 -10 -2 -22 -4 -27 -4 -5 -1 -6 -4 -2 -8 7 -8 12 -9 38 -12 7 0 4 -7 -7 -15
-10 -7 -31 -12 -46 -10 -20 3 -33 -3 -44 -18 -8 -13 -15 -18 -15 -12 0 5 5 15
12 22 7 7 8 12 2 12 -5 0 -15 -5 -20 -10 -7 -7 -10 -1 -10 18 0 26 3 29 28 27
20 -2 34 5 47 21 16 20 20 21 33 8 13 -13 15 -12 13 8 -1 13 3 26 9 30 15 11
16 10 10 -7z m51 -54 c3 -5 2 -12 -3 -15 -5 -3 -9 1 -9 9 0 17 3 19 12 6z
m4322 -16 c0 -8 -4 -12 -9 -9 -5 3 -6 10 -3 15 9 13 12 11 12 -6z m-4357 -20
c-7 -8 -17 -15 -23 -15 -6 0 -2 7 9 15 25 19 30 19 14 0z m-49 -41 c6 -8 16
-11 22 -7 6 4 7 1 3 -6 -6 -9 -12 -9 -25 3 -21 19 -35 21 -25 4 4 -6 3 -8 -4
-4 -5 3 -12 3 -15 -1 -2 -5 -2 -2 -1 5 2 6 -1 12 -6 12 -6 0 -10 -5 -10 -12 0
-6 -3 -9 -6 -5 -11 11 6 25 31 25 13 0 30 -7 36 -14z m4414 6 c-3 -5 -12 -10
-18 -10 -7 0 -6 4 3 10 19 12 23 12 15 0z m-4474 -47 c12 -16 12 -17 -2 -6 -9
7 -20 9 -24 5 -5 -4 -5 -1 -1 6 9 16 11 15 27 -5z m49 8 c0 -6 -4 -12 -8 -15
-5 -3 -9 1 -9 9 0 8 4 15 9 15 4 0 8 -4 8 -9z m-60 -45 c-7 -7 -13 -7 -20 0
-6 6 -3 10 10 10 13 0 16 -4 10 -10z m55 4 c3 -5 1 -10 -4 -10 -6 0 -11 5 -11
10 0 6 2 10 4 10 3 0 8 -4 11 -10z m4385 0 c0 -5 -5 -10 -11 -10 -5 0 -7 5 -4
10 3 6 8 10 11 10 2 0 4 -4 4 -10z m0 -80 c0 -5 -5 -10 -11 -10 -5 0 -7 5 -4
10 3 6 8 10 11 10 2 0 4 -4 4 -10z m-24 -96 c1 -9 0 -13 -4 -10 -3 4 -7 14 -8
22 -1 9 0 13 4 10 3 -4 7 -14 8 -22z m4 -44 c0 -5 -5 -10 -11 -10 -5 0 -7 5
-4 10 3 6 8 10 11 10 2 0 4 -4 4 -10z m-20 -40 c0 -5 -2 -10 -4 -10 -3 0 -8 5
-11 10 -3 6 -1 10 4 10 6 0 11 -4 11 -10z m45 -20 c3 -6 -1 -7 -9 -4 -18 7
-21 14 -7 14 6 0 13 -4 16 -10z m-30 -9 c3 -5 2 -12 -3 -15 -5 -3 -9 1 -9 9 0
17 3 19 12 6z m60 0 c3 -5 2 -12 -3 -15 -5 -3 -9 1 -9 9 0 17 3 19 12 6z m-90
-30 c-9 -8 -36 -10 -30 -2 2 4 11 8 20 8 8 0 13 -3 10 -6z m42 -13 c-3 -8 -6
-5 -6 6 -1 11 2 17 5 13 3 -3 4 -12 1 -19z m37 -14 c3 -8 10 -12 16 -9 5 3 10
1 10 -4 0 -18 -24 -12 -38 9 -7 11 -8 20 -3 20 5 0 12 -7 15 -16z m-44 -18 c0
-6 4 -5 9 3 7 11 10 9 15 -7 4 -12 13 -19 21 -16 7 3 16 1 20 -5 3 -7 0 -8 -9
-5 -19 7 -21 -7 -4 -24 6 -6 13 -22 15 -34 3 -22 2 -21 -18 5 -23 30 -44 27
-33 -5 5 -17 3 -20 -11 -14 -12 4 -26 -3 -43 -21 -14 -16 -25 -29 -24 -30 8
-12 -2 -21 -18 -18 -17 3 -19 0 -16 -20 3 -14 0 -28 -6 -31 -7 -5 -8 -2 -4 5
5 8 2 11 -9 9 -10 -2 -19 3 -21 10 -1 7 0 8 2 3 3 -6 12 -7 20 -4 13 5 13 7 2
14 -11 7 -10 11 1 18 13 8 13 12 0 28 -12 16 -12 17 2 6 9 -7 19 -10 22 -6 4
3 -1 12 -11 20 -16 12 -16 13 2 6 13 -4 17 -3 12 5 -4 7 -9 21 -11 33 -4 20
-3 20 20 5 15 -10 26 -12 30 -6 3 6 1 10 -6 10 -8 0 -8 4 2 16 11 13 9 14 -13
9 -15 -4 -29 -2 -32 4 -4 7 -1 9 8 5 20 -7 58 14 50 28 -5 7 -2 8 6 3 10 -6
12 -4 7 8 -4 11 -2 14 9 10 7 -3 14 -10 14 -17z m-127 -139 c3 -8 2 -20 -3
-26 -5 -9 -7 -4 -7 13 0 29 2 32 10 13z m-131 -186 c-4 -10 -7 -11 -10 -3 -2
7 -9 9 -14 6 -6 -4 -8 -3 -5 3 10 16 36 11 29 -6z m-67 -10 c-9 -16 15 -23 33
-10 16 12 16 12 0 -6 -14 -15 -20 -16 -32 -6 -14 12 -14 31 0 31 3 0 3 -4 -1
-9z m-38 -73 c-3 -8 -6 -5 -6 6 -1 11 2 17 5 13 3 -3 4 -12 1 -19z m-172 -68
c-3 -5 -12 -10 -18 -10 -7 0 -6 4 3 10 19 12 23 12 15 0z m-225 -160 c0 -5 -5
-10 -11 -10 -5 0 -7 5 -4 10 3 6 8 10 11 10 2 0 4 -4 4 -10z m-85 -28 c-3 -3
-11 0 -18 7 -9 10 -8 11 6 5 10 -3 15 -9 12 -12z m58 -5 c4 3 7 1 7 -5 0 -18
-27 -14 -34 4 -5 13 -4 14 7 6 8 -7 17 -9 20 -5z m-33 -27 c0 -5 -4 -10 -10
-10 -5 0 -10 5 -10 10 0 6 5 10 10 10 6 0 10 -4 10 -10z m100 6 c0 -2 -8 -10
-17 -17 -16 -13 -17 -12 -4 4 13 16 21 21 21 13z m-220 -87 c0 -5 -5 -9 -12
-9 -6 0 -8 3 -5 7 4 3 1 13 -6 22 -11 14 -10 14 6 2 9 -7 17 -17 17 -22z
m-3493 -24 c-9 -7 -13 -16 -9 -20 4 -5 1 -5 -7 0 -12 7 -11 10 2 20 9 7 13 16
9 20 -4 5 -1 5 7 0 12 -7 11 -10 -2 -20z m30 1 c-3 -8 5 -18 19 -25 24 -11 33
-31 13 -31 -5 0 -7 -5 -4 -10 5 -8 11 -7 21 1 13 11 17 8 12 -8 -2 -3 11 -12
27 -19 18 -8 23 -13 13 -14 -10 0 -18 -5 -18 -10 0 -5 3 -9 8 -7 8 2 12 -6 12
-28 0 -8 -4 -15 -10 -15 -6 0 -9 3 -9 8 4 26 -1 34 -16 22 -12 -10 -16 -8 -25
15 -9 23 -13 25 -25 15 -14 -12 -20 -7 -16 14 1 5 -6 5 -16 1 -33 -12 -36 -10
-38 22 0 18 1 30 4 28 2 -3 10 0 16 5 14 12 30 -14 19 -31 -10 -16 6 -9 29 12
18 18 19 21 4 16 -10 -4 -16 -3 -13 2 3 5 -1 11 -9 15 -13 5 -11 36 2 36 3 0
3 -6 0 -14z m3513 -15 c-12 -24 -27 -28 -27 -6 0 8 4 12 9 9 4 -3 11 2 14 11
4 9 9 14 11 11 3 -2 0 -14 -7 -25z m-140 -16 c-14 -17 -30 -20 -30 -4 0 5 4 8
9 4 5 -3 12 -1 16 5 3 5 9 10 12 10 3 0 0 -7 -7 -15z m8 -31 c-7 -15 -14 -21
-16 -15 -2 7 2 18 8 26 18 22 21 18 8 -11z m-3282 -10 c1 -9 0 -13 -4 -10 -3
4 -7 14 -8 22 -1 9 0 13 4 10 3 -4 7 -14 8 -22z m3311 15 c-9 -6 -15 -14 -12
-20 4 -5 1 -9 -4 -9 -6 0 -11 4 -11 8 0 12 22 32 35 32 5 0 2 -5 -8 -11z
m-102 -19 c3 -5 -3 -17 -14 -27 -11 -9 -18 -21 -15 -27 3 -6 -1 -3 -9 7 -10
12 -17 14 -22 8 -3 -6 -12 -11 -18 -11 -7 0 -4 6 5 14 10 7 14 17 10 22 -4 4
1 2 11 -5 16 -12 20 -12 35 3 16 17 16 18 -8 11 -19 -5 -21 -4 -10 4 19 13 27
14 35 1z m-131 -26 c3 -8 2 -12 -4 -9 -6 3 -10 10 -10 16 0 14 7 11 14 -7z
m-19 -34 c-3 -5 -14 -10 -23 -9 -14 0 -13 2 3 9 27 11 27 11 20 0z m-81 -18
c3 -5 -1 -9 -9 -9 -8 0 -12 4 -9 9 3 4 7 8 9 8 2 0 6 -4 9 -8z m-2896 -32 c-7
-11 -15 -15 -17 -9 -2 6 3 15 10 20 20 12 21 11 7 -11z m2895 -3 c4 3 7 1 7
-5 0 -17 -16 -15 -31 6 -12 15 -12 16 2 5 9 -7 19 -10 22 -6z m37 -7 c0 -5 -5
-10 -11 -10 -5 0 -7 5 -4 10 3 6 8 10 11 10 2 0 4 -4 4 -10z m-2812 -45 c-3
-3 -9 2 -12 12 -6 14 -5 15 5 6 7 -7 10 -15 7 -18z m2690 -19 c-10 -7 -14 -17
-10 -21 4 -5 1 -5 -7 0 -12 7 -11 10 4 22 24 17 36 17 13 -1z m-2678 -26 c6
-11 9 -20 8 -20 -2 0 -11 9 -21 20 -9 11 -13 20 -7 20 5 0 14 -9 20 -20z
m2621 -3 c-10 -9 -11 -8 -5 6 3 10 9 15 12 12 3 -3 0 -11 -7 -18z m-2554 -22
c0 -8 -4 -12 -9 -9 -5 3 -6 10 -3 15 9 13 12 11 12 -6z m-26 -12 c13 -16 12
-17 -3 -4 -10 7 -18 15 -18 17 0 8 8 3 21 -13z m2518 3 c8 -10 9 -16 1 -21 -6
-4 -9 -1 -8 7 2 7 -3 12 -10 10 -8 -1 -11 2 -7 8 8 13 10 13 24 -4z m-2569
-42 c0 -8 -4 -12 -10 -9 -5 3 -10 10 -10 16 0 5 5 9 10 9 6 0 10 -7 10 -16z
m2566 4 c5 4 1 -3 -10 -15 -20 -24 -14 -45 11 -41 9 2 18 -3 21 -11 3 -9 0
-11 -7 -7 -7 4 -23 0 -36 -8 -14 -9 -25 -13 -25 -9 0 4 -13 -6 -30 -22 -19
-18 -30 -24 -30 -14 1 16 45 70 57 68 20 -3 27 2 13 11 -13 9 -13 12 3 21 15
9 16 13 5 27 -11 15 -11 15 3 5 9 -7 20 -9 25 -5z m-66 -42 c-7 -7 -13 -7 -20
0 -6 6 -3 10 10 10 13 0 16 -4 10 -10z m-15 -18 c4 4 -5 -11 -20 -33 -35 -53
-48 -59 -71 -32 l-19 22 23 -19 c15 -13 22 -15 22 -6 0 7 -8 19 -17 27 -16 13
-16 13 4 4 12 -6 24 -16 26 -23 4 -9 6 -7 6 3 1 9 8 22 16 29 12 10 13 16 3
29 -11 14 -11 14 3 4 9 -7 19 -9 24 -5z m-48 -11 c0 -8 -6 -14 -14 -14 -9 0
-10 4 -2 14 6 7 12 13 14 13 1 0 2 -6 2 -13z m-2160 -11 c-3 -8 -2 -17 4 -20
5 -2 4 -3 -2 -2 -15 3 -21 36 -7 36 6 0 8 -6 5 -14z m-117 -36 c0 -5 -4 -10
-10 -10 -5 0 -10 5 -10 10 0 6 5 10 10 10 6 0 10 -4 10 -10z m154 -6 c3 -8 2
-12 -4 -9 -6 3 -10 10 -10 16 0 14 7 11 14 -7z m29 -1 c-3 -7 -6 -13 -8 -13
-2 0 -5 6 -8 13 -3 8 1 14 8 14 7 0 11 -6 8 -14z m34 -2 c0 -11 -5 -18 -9 -15
-4 3 -5 11 -1 19 7 21 12 19 10 -4z m1938 9 c3 -5 1 -10 -4 -10 -6 0 -11 5
-11 10 0 6 2 10 4 10 3 0 8 -4 11 -10z m-1850 -20 c-3 -5 -12 -10 -18 -10 -7
0 -6 4 3 10 19 12 23 12 15 0z m-135 -14 c0 -11 -19 -15 -25 -6 -3 5 1 10 9
10 9 0 16 -2 16 -4z m30 0 c0 -3 -4 -8 -10 -11 -5 -3 -10 -1 -10 4 0 6 5 11
10 11 6 0 10 -2 10 -4z m40 -16 c0 -5 -4 -10 -10 -10 -5 0 -10 5 -10 10 0 6 5
10 10 10 6 0 10 -4 10 -10z m80 6 c0 -2 -6 -9 -14 -15 -11 -9 -16 -9 -22 0 -4
7 -3 9 4 5 6 -3 13 -2 17 4 6 10 15 14 15 6z m-80 -38 c0 -5 -4 -8 -10 -8 -5
0 -10 5 -10 10 0 6 -3 9 -7 9 -5 -1 -15 -1 -23 0 -13 1 -13 3 -1 10 14 9 51
-6 51 -21z m1820 22 c0 -5 -5 -10 -11 -10 -5 0 -7 5 -4 10 3 6 8 10 11 10 2 0
4 -4 4 -10z m-1785 -10 c3 -6 -1 -7 -9 -4 -18 7 -21 14 -7 14 6 0 13 -4 16
-10z m58 -14 c4 -10 1 -13 -8 -9 -8 3 -12 9 -9 14 7 12 11 11 17 -5z m1684
-38 c-3 -8 -6 -5 -6 6 -1 11 2 17 5 13 3 -3 4 -12 1 -19z m-1612 2 c3 -6 -1
-7 -9 -4 -18 7 -21 14 -7 14 6 0 13 -4 16 -10z m50 -20 c3 -5 1 -10 -4 -10 -6
0 -11 5 -11 10 0 6 2 10 4 10 3 0 8 -4 11 -10z m1503 -10 c-7 -11 -16 -20 -21
-20 -4 0 -5 -6 -1 -12 4 -7 3 -9 -1 -5 -11 10 -16 39 -5 32 4 -3 13 2 20 10
18 21 22 18 8 -5z m-1458 -30 c0 -5 -2 -10 -4 -10 -3 0 -8 5 -11 10 -3 6 -1
10 4 10 6 0 11 -4 11 -10z m1360 0 c0 -5 -2 -10 -4 -10 -3 0 -8 5 -11 10 -3 6
-1 10 4 10 6 0 11 -4 11 -10z m-1304 -36 c1 -9 0 -13 -4 -10 -3 4 -7 14 -8 22
-1 9 0 13 4 10 3 -4 7 -14 8 -22z m34 -19 c5 3 14 -5 20 -17 9 -20 9 -21 -2
-7 -7 9 -17 16 -23 17 -5 0 -10 5 -11 11 -2 7 -1 8 3 1 2 -5 9 -8 13 -5z
m1321 -12 c-8 -3 -10 -8 -3 -12 6 -4 -1 -13 -17 -22 -21 -12 -28 -13 -28 -3 0
7 3 12 6 11 3 -1 7 2 8 7 2 11 25 26 38 25 6 0 4 -3 -4 -6z m-1256 -33 c3 -5
1 -10 -4 -10 -6 0 -11 5 -11 10 0 6 2 10 4 10 3 0 8 -4 11 -10z m1127 -28 c8
-8 8 -15 0 -25 -7 -8 -9 -17 -5 -21 9 -8 -29 -36 -40 -29 -5 3 -22 -4 -38 -16
-35 -26 -50 -28 -18 -2 l24 20 -25 11 c-23 10 -24 10 -2 6 15 -3 25 1 29 11 4
10 8 11 13 4 4 -8 13 -5 25 9 14 15 15 23 6 34 -10 12 -9 14 4 12 8 -1 20 -7
27 -14z m-42 -14 c0 -3 -9 -6 -20 -5 -11 1 -20 5 -20 9 0 3 9 6 20 5 11 -1 20
-5 20 -9z m-1020 -18 c0 -5 -4 -10 -10 -10 -5 0 -10 5 -10 10 0 6 5 10 10 10
6 0 10 -4 10 -10z m84 2 c3 -5 -1 -9 -9 -9 -8 0 -12 4 -9 9 3 4 7 8 9 8 2 0 6
-4 9 -8z m72 -48 c1 -9 0 -13 -4 -10 -3 4 -7 14 -8 22 -1 9 0 13 4 10 3 -4 7
-14 8 -22z m61 1 c0 -8 -4 -12 -9 -9 -5 3 -6 10 -3 15 9 13 12 11 12 -6z m621
-26 c-3 -8 -7 -3 -11 10 -4 17 -3 21 5 13 5 -5 8 -16 6 -23z m-61 7 c0 -8 -6
-12 -15 -9 -11 5 -11 7 0 14 7 5 13 9 14 9 0 0 1 -6 1 -14z m-92 -16 c3 -6 -1
-7 -9 -4 -18 7 -21 14 -7 14 6 0 13 -4 16 -10z m131 -14 c-1 -14 -8 -31 -14
-39 -7 -8 -8 -17 -4 -22 4 -4 0 -6 -8 -3 -9 3 -14 14 -12 27 2 12 -1 20 -6 19
-6 -2 -12 1 -13 6 -2 5 4 10 14 12 9 1 15 -2 11 -7 -3 -5 -1 -9 4 -9 5 0 12 9
15 20 7 28 16 25 13 -4z m-211 -6 c10 -11 16 -20 13 -20 -3 0 -13 9 -23 20
-10 11 -16 20 -13 20 3 0 13 -9 23 -20z m50 11 c3 -5 2 -12 -3 -15 -5 -3 -9 1
-9 9 0 17 3 19 12 6z m84 -18 c2 -1 -5 -1 -16 0 -11 0 -20 7 -20 14 0 10 4 10
16 1 9 -7 18 -13 20 -15z m-455 5 c-3 -4 -11 -5 -19 -1 -21 7 -19 12 4 10 11
0 18 -5 15 -9z m116 3 c0 -16 -28 -33 -35 -21 -4 6 -1 9 7 8 7 -2 12 3 11 10
-2 6 2 12 7 12 6 0 10 -4 10 -9z m40 -16 c14 -19 14 -19 -2 -6 -10 7 -18 18
-18 24 0 6 1 8 3 6 1 -2 9 -13 17 -24z m56 -12 c-3 -20 -22 -28 -31 -14 -4 7
0 8 10 5 9 -4 15 -3 14 2 -2 13 0 24 5 24 2 0 3 -8 2 -17z m-81 -14 c-4 -5
-12 -9 -18 -8 -9 0 -8 2 1 6 6 2 9 10 6 15 -4 7 -2 8 5 4 6 -4 9 -12 6 -17z
m95 -16 c-11 -17 -11 -17 -6 0 3 10 6 24 7 30 0 9 2 9 5 0 3 -7 0 -20 -6 -30z
m85 9 c-3 -3 -11 0 -18 7 -9 10 -8 11 6 5 10 -3 15 -9 12 -12z m-319 -14 c4 4
2 -1 -5 -10 -18 -24 -26 -23 -28 3 -2 16 1 18 11 10 7 -6 17 -7 22 -3z m214
-20 c0 -12 -6 -9 -26 13 -19 22 -19 22 4 8 12 -8 22 -17 22 -21z m48 12 c-7
-11 -15 -15 -17 -9 -2 6 3 15 10 20 20 12 21 11 7 -11z m14 -44 c4 3 8 10 8
15 0 6 -4 7 -10 4 -5 -3 -10 -1 -10 5 0 27 25 1 26 -28 1 -27 0 -29 -13 -16
-8 8 -23 19 -34 24 -10 6 -19 15 -19 21 0 5 10 1 22 -10 11 -11 25 -18 30 -15z
m164 9 c-12 -18 -13 -25 -4 -25 15 -1 -20 -23 -40 -26 -13 -2 10 31 33 48 7 5
7 8 0 8 -5 0 -3 5 5 10 23 15 24 12 6 -15z m-418 -17 c6 9 12 5 21 -14 10 -22
10 -25 -1 -17 -7 6 -24 9 -38 7 -19 -3 -22 -2 -10 6 11 7 11 10 2 10 -7 0 -10
5 -6 11 4 8 9 7 15 -2 7 -11 11 -11 17 -1z"/>
<path d="M2931 4338 c-1 -23 15 -32 23 -12 3 8 2 13 -3 9 -5 -3 -12 1 -14 7
-4 8 -6 7 -6 -4z"/>
<path d="M2886 4315 c-11 -8 -16 -15 -10 -15 5 0 18 7 28 15 11 8 16 15 10 15
-5 0 -18 -7 -28 -15z"/>
<path d="M3441 4301 c-8 -5 -9 -11 -3 -15 5 -3 15 1 22 9 14 16 3 20 -19 6z"/>
<path d="M3691 4204 c6 -8 14 -12 17 -9 3 3 11 0 17 -5 9 -7 17 -5 26 7 12 16
12 17 -2 6 -12 -10 -18 -10 -27 -1 -7 7 -19 13 -27 14 -13 2 -14 0 -4 -12z"/>
<path d="M3865 4161 c-3 -5 -2 -12 3 -15 5 -3 9 1 9 9 0 17 -3 19 -12 6z"/>
<path d="M2443 4123 c8 -7 -39 -33 -62 -33 -13 0 -13 -2 -2 -9 11 -7 11 -9 0
-14 -9 -3 -9 -6 -2 -6 6 -1 19 7 29 17 10 9 21 18 26 18 4 1 11 3 16 4 4 1 11
2 16 1 5 -1 4 5 -4 13 -7 9 -15 16 -18 16 -3 0 -2 -3 1 -7z"/>
<path d="M2294 4027 c-28 -30 -28 -31 -2 -8 14 13 31 20 37 17 5 -4 12 -2 15
3 3 5 0 11 -8 14 -8 3 -26 -9 -42 -26z"/>
<path d="M2235 3981 c-3 -5 -2 -12 3 -15 5 -3 9 1 9 9 0 17 -3 19 -12 6z"/>
<path d="M1429 3614 c-6 -8 -6 -14 -1 -18 6 -3 15 1 22 9 9 11 16 12 25 5 8
-7 12 -5 12 5 0 17 -43 16 -58 -1z"/>
<path d="M367 2993 c-10 -10 -27 -18 -39 -18 -12 0 -22 -6 -24 -13 -1 -7 0 -8
3 -2 3 8 9 8 18 0 10 -8 15 -8 20 1 6 8 10 7 16 -2 7 -12 9 -12 9 0 0 10 3 11
14 2 11 -9 16 -9 22 1 4 7 4 10 -1 6 -4 -4 -14 -3 -22 3 -10 9 -10 15 -2 25
16 20 7 17 -14 -3z"/>
<path d="M4718 2453 c-11 -14 -10 -15 10 -9 23 8 31 -7 10 -20 -7 -4 -8 -3 -4
4 5 8 1 10 -9 6 -9 -4 -14 -12 -11 -20 6 -16 -20 -39 -29 -24 -13 21 -26 10
-14 -12 13 -24 13 -26 -3 -46 -6 -7 -8 -15 -4 -19 3 -3 6 -1 6 6 0 7 5 9 13 5
6 -4 9 -3 4 1 -4 5 14 30 40 57 45 46 48 47 66 30 15 -13 14 -9 -4 19 -26 39
-51 46 -71 22z m11 -59 c-29 -29 -46 -40 -46 -30 0 9 3 14 5 11 9 -9 42 27 35
38 -3 6 -1 7 5 3 6 -4 17 2 24 13 7 11 14 18 17 15 3 -2 -15 -25 -40 -50z"/>
<path d="M309 1623 c0 -5 -2 -16 -4 -25 -2 -11 2 -15 12 -11 12 5 12 7 1 14
-10 7 -10 9 0 9 6 0 12 5 12 10 0 11 -20 14 -21 3z"/>
<path d="M359 1610 c0 -3 -2 -13 -4 -23 -2 -13 0 -15 8 -8 16 13 51 -13 42
-31 -3 -7 1 -4 9 7 15 17 15 20 1 28 -9 4 -12 14 -8 20 5 9 3 9 -8 0 -12 -10
-18 -10 -27 -1 -7 7 -12 10 -13 8z"/>
<path d="M3185 1250 c-4 -6 -10 -8 -14 -5 -5 2 -19 -8 -32 -23 l-24 -27 26 23
c14 12 28 20 31 17 3 -3 11 1 18 10 7 8 10 15 7 15 -3 0 -9 -5 -12 -10z"/>
<path d="M2575 892 c4 -8 -2 -23 -15 -37 -12 -13 -17 -26 -12 -29 5 -3 15 1
22 9 7 8 9 15 5 15 -4 0 -2 7 5 15 11 13 11 18 0 28 -10 9 -11 9 -5 -1z"/>
<path d="M2515 830 c-3 -5 -1 -10 4 -10 6 0 11 5 11 10 0 6 -2 10 -4 10 -3 0
-8 -4 -11 -10z"/>
<path d="M3190 4376 c7 -7 13 -7 20 0 6 6 3 10 -10 10 -13 0 -16 -4 -10 -10z"/>
<path d="M2867 4360 c-16 -20 -12 -27 8 -12 9 6 19 32 12 32 -1 0 -10 -9 -20
-20z"/>
<path d="M3495 4370 c-4 -6 -11 -8 -16 -5 -5 4 -9 1 -9 -5 0 -7 7 -9 16 -6 12
5 15 2 10 -9 -3 -9 -2 -13 3 -10 6 3 9 14 8 25 -1 23 -3 24 -12 10z"/>
<path d="M2755 4333 c2 -15 6 -38 9 -50 3 -16 0 -23 -10 -23 -8 0 -14 -4 -14
-9 0 -5 -9 -7 -20 -4 -11 3 -20 1 -20 -4 0 -11 30 -11 48 1 6 4 17 4 22 1 13
-8 42 14 35 26 -3 4 -11 6 -19 3 -7 -3 -13 1 -14 8 -1 7 -3 25 -5 40 -1 15 -5
30 -9 33 -3 3 -4 -7 -3 -22z"/>
<path d="M3535 4351 c-3 -5 -2 -12 3 -15 5 -3 9 1 9 9 0 17 -3 19 -12 6z"/>
<path d="M3666 4345 c-11 -8 -15 -15 -9 -15 6 0 16 7 23 15 16 19 11 19 -14 0z"/>
<path d="M2786 4341 c-4 -5 3 -7 14 -4 23 6 26 13 6 13 -8 0 -17 -4 -20 -9z"/>
<path d="M2810 4320 c0 -5 5 -10 10 -10 6 0 10 5 10 10 0 6 -4 10 -10 10 -5 0
-10 -4 -10 -10z"/>
<path d="M3300 4320 c0 -5 7 -10 16 -10 8 0 12 5 9 10 -3 6 -10 10 -16 10 -5
0 -9 -4 -9 -10z"/>
<path d="M3587 4311 c14 -17 33 -20 33 -5 0 3 -4 3 -9 0 -5 -3 -11 1 -15 9 -3
8 -10 15 -16 15 -5 0 -2 -9 7 -19z"/>
<path d="M2724 4299 c-5 -8 -3 -9 6 -4 8 5 11 3 8 -6 -3 -8 -12 -14 -21 -14
-8 0 -18 -3 -22 -6 -5 -5 18 -5 48 0 10 2 9 29 -2 36 -5 3 -13 0 -17 -6z"/>
<path d="M3730 4300 c0 -5 5 -10 11 -10 5 0 7 5 4 10 -3 6 -8 10 -11 10 -2 0
-4 -4 -4 -10z"/>
<path d="M2610 4279 c0 -5 5 -7 10 -4 6 3 10 8 10 11 0 2 -4 4 -10 4 -5 0 -10
-5 -10 -11z"/>
<path d="M3711 4273 c7 -12 15 -20 18 -17 3 2 -3 12 -13 22 -17 16 -18 16 -5
-5z"/>
<path d="M2576 4233 c-6 -14 -5 -15 5 -6 7 7 10 15 7 18 -3 3 -9 -2 -12 -12z"/>
<path d="M2630 4238 c0 -4 4 -8 9 -8 6 0 12 4 15 8 3 5 -1 9 -9 9 -8 0 -15 -4
-15 -9z"/>
<path d="M3777 4239 c7 -7 15 -10 18 -7 3 3 -2 9 -12 12 -14 6 -15 5 -6 -5z"/>
<path d="M3955 4210 c-4 -6 -11 -8 -16 -5 -5 4 -9 1 -9 -4 0 -16 16 -13 30 4
7 8 10 15 7 15 -3 0 -9 -5 -12 -10z"/>
<path d="M4135 4211 c-3 -5 -2 -12 3 -15 5 -3 9 1 9 9 0 17 -3 19 -12 6z"/>
<path d="M2556 4198 c3 -5 10 -6 15 -3 13 9 11 12 -6 12 -8 0 -12 -4 -9 -9z"/>
<path d="M3985 4199 c-11 -16 -1 -19 13 -3 7 8 8 14 3 14 -5 0 -13 -5 -16 -11z"/>
<path d="M4175 4200 c3 -5 8 -10 11 -10 2 0 4 5 4 10 0 6 -5 10 -11 10 -5 0
-7 -4 -4 -10z"/>
<path d="M2516 4187 c3 -10 9 -15 12 -12 3 3 0 11 -7 18 -10 9 -11 8 -5 -6z"/>
<path d="M2356 4178 c3 -5 10 -6 15 -3 13 9 11 12 -6 12 -8 0 -12 -4 -9 -9z"/>
<path d="M4090 4179 c0 -5 5 -7 10 -4 6 3 10 8 10 11 0 2 -4 4 -10 4 -5 0 -10
-5 -10 -11z"/>
<path d="M4135 4160 c6 -24 5 -24 -9 -6 -16 20 -16 20 -17 0 -1 -10 -1 -22 0
-26 0 -5 -3 -8 -9 -8 -5 0 -7 -7 -4 -15 4 -10 11 -12 22 -6 10 5 22 10 27 10
6 1 9 13 8 27 -1 13 2 22 7 19 5 -3 11 -1 14 4 4 5 -2 8 -11 7 -10 -2 -22 2
-26 8 -5 6 -6 0 -2 -14z m12 -35 c0 -6 -8 -11 -17 -11 -9 0 -17 6 -17 12 0 7
8 12 17 11 9 0 17 -6 17 -12z"/>
<path d="M4197 4159 c4 -13 8 -18 11 -10 2 7 -1 18 -6 23 -8 8 -9 4 -5 -13z"/>
<path d="M4176 4143 c-3 -4 -6 -13 -6 -22 0 -11 3 -12 8 -4 8 13 35 2 32 -13
-1 -5 10 -18 25 -29 25 -19 27 -19 39 -3 7 10 16 15 19 11 4 -3 12 -1 19 4 7
6 25 10 40 9 14 -1 24 2 21 6 -5 10 -49 6 -59 -5 -15 -15 -26 -6 -13 11 13 15
12 16 -4 3 -16 -13 -18 -12 -13 12 3 15 0 27 -5 27 -5 0 -9 -6 -8 -12 3 -26
-1 -38 -13 -35 -7 1 -12 -4 -10 -10 1 -7 -2 -13 -8 -13 -16 0 -11 30 6 37 13
5 13 7 2 14 -7 5 -17 9 -23 9 -5 0 -4 -4 4 -9 7 -5 9 -11 4 -14 -6 -4 -19 2
-30 13 -12 10 -24 16 -27 13z m97 -60 c-3 -7 -8 -13 -12 -13 -4 0 -8 6 -8 13
0 8 6 14 13 14 7 0 10 -6 7 -14z"/>
<path d="M4306 4141 c-3 -4 4 -7 14 -6 27 2 33 10 10 12 -11 1 -22 -2 -24 -6z"/>
<path d="M4393 4095 c0 -8 4 -12 9 -9 5 3 6 10 3 15 -9 13 -12 11 -12 -6z"/>
<path d="M2280 4070 c-9 -6 -10 -10 -3 -10 6 0 15 5 18 10 8 12 4 12 -15 0z"/>
<path d="M4459 4068 c-6 -21 -5 -38 1 -38 5 0 8 9 7 20 -1 17 -5 26 -8 18z"/>
<path d="M2160 4010 c6 -11 13 -20 16 -20 2 0 0 9 -6 20 -6 11 -13 20 -16 20
-2 0 0 -9 6 -20z"/>
<path d="M4360 4000 c0 -5 5 -10 11 -10 5 0 7 5 4 10 -3 6 -8 10 -11 10 -2 0
-4 -4 -4 -10z"/>
<path d="M4450 3995 c-18 -10 -28 -11 -37 -3 -8 6 -16 8 -19 6 -3 -3 9 -16 27
-29 18 -13 30 -18 26 -12 -4 6 5 21 19 32 30 23 22 26 -16 6z"/>
<path d="M4501 3994 c0 -11 3 -14 6 -6 3 7 2 16 -1 19 -3 4 -6 -2 -5 -13z"/>
<path d="M1887 3959 c7 -7 15 -10 18 -7 3 3 -2 9 -12 12 -14 6 -15 5 -6 -5z"/>
<path d="M4510 3959 c0 -5 5 -7 10 -4 6 3 10 8 10 11 0 2 -4 4 -10 4 -5 0 -10
-5 -10 -11z"/>
<path d="M4546 3961 c2 -3 -4 -10 -15 -15 -16 -9 -17 -13 -5 -24 8 -7 14 -8
14 -3 0 6 9 18 20 28 19 18 19 19 0 19 -10 0 -17 -2 -14 -5z"/>
<path d="M4626 3962 c-3 -5 1 -9 9 -9 8 0 15 4 15 9 0 4 -4 8 -9 8 -6 0 -12
-4 -15 -8z"/>
<path d="M1975 3951 c-3 -5 0 -13 6 -17 7 -4 9 -3 5 4 -3 6 3 12 16 15 23 4
23 4 1 6 -12 0 -24 -3 -28 -8z"/>
<path d="M1835 3921 c-3 -5 -2 -12 3 -15 5 -3 9 1 9 9 0 17 -3 19 -12 6z"/>
<path d="M1880 3920 c18 -12 30 -13 30 -2 0 4 -10 9 -22 9 -18 2 -20 0 -8 -7z"/>
<path d="M1949 3913 c-1 -10 0 -25 1 -32 1 -12 -1 -13 -14 -2 -8 7 -13 20 -10
29 3 9 -1 6 -9 -8 -9 -14 -13 -28 -11 -32 6 -10 -10 -11 -19 -1 -4 3 -1 13 5
22 7 9 8 13 4 9 -5 -4 -16 -2 -25 5 -14 10 -14 10 -3 -5 11 -14 10 -18 -5 -27
-17 -11 -17 -11 1 -9 10 2 21 -2 23 -9 3 -8 -4 -10 -22 -7 -17 3 -24 1 -20 -6
3 -5 2 -10 -4 -10 -5 0 -11 3 -14 8 -2 4 -2 1 -1 -5 2 -7 0 -13 -5 -13 -16 0
-20 13 -10 34 9 19 9 19 -4 4 -11 -14 -16 -15 -27 -5 -12 10 -12 9 -2 -4 6 -9
8 -19 4 -23 -4 -4 0 -6 8 -4 9 2 15 -6 17 -22 2 -22 2 -23 -6 -5 -8 16 -10 17
-10 3 -1 -24 14 -31 29 -13 7 8 9 15 4 15 -11 1 27 30 39 30 4 0 5 -6 1 -12
-5 -7 9 2 30 20 20 18 41 30 46 27 5 -3 11 -1 15 5 4 6 12 8 18 4 7 -3 4 1 -6
9 -16 13 -16 15 -2 21 9 3 13 10 10 16 -10 16 -25 12 -26 -7z"/>
<path d="M4675 3890 c-4 -6 -11 -7 -17 -4 -7 4 -8 2 -4 -5 6 -9 11 -9 22 0 14
11 18 19 10 19 -3 0 -8 -5 -11 -10z"/>
<path d="M1830 3879 c0 -5 5 -7 10 -4 6 3 10 8 10 11 0 2 -4 4 -10 4 -5 0 -10
-5 -10 -11z"/>
<path d="M4673 3853 c-17 -6 -17 -20 0 -26 8 -3 13 3 13 14 0 11 0 19 -1 18 0
0 -6 -3 -12 -6z"/>
<path d="M1735 3840 c-3 -5 -1 -10 4 -10 6 0 11 5 11 10 0 6 -2 10 -4 10 -3 0
-8 -4 -11 -10z"/>
<path d="M1696 3806 c3 -9 13 -16 22 -16 8 0 13 1 11 3 -2 1 -12 9 -22 16 -15
12 -17 12 -11 -3z"/>
<path d="M1745 3810 c8 -13 -6 -41 -17 -34 -5 3 -19 -2 -30 -13 -20 -18 -21
-18 -14 7 6 23 6 23 -5 5 -17 -28 -16 -28 -31 -19 -22 14 -37 13 -31 -3 3 -8
8 -11 12 -5 4 7 12 6 23 -2 10 -7 16 -15 13 -17 -2 -3 7 -5 21 -4 14 0 33 9
42 20 10 11 23 20 31 20 23 0 24 42 1 48 -11 3 -18 1 -15 -3z m22 -25 c0 -8
-4 -15 -9 -15 -10 0 -11 14 -1 23 9 10 10 9 10 -8z m-37 -24 c0 -13 -29 -35
-37 -28 -7 8 15 37 28 37 5 0 9 -4 9 -9z"/>
<path d="M4640 3810 c-11 -7 -11 -11 -1 -24 11 -13 11 -16 0 -16 -9 -1 -7 -7
7 -18 11 -10 19 -23 16 -30 -2 -6 3 -15 12 -18 9 -3 16 -13 16 -21 0 -8 4 -12
9 -9 4 3 17 -1 27 -9 17 -13 18 -14 2 -15 -22 0 -24 -16 -4 -23 8 -3 20 1 27
9 10 12 13 12 25 -3 12 -17 12 -17 11 2 -2 15 3 19 21 18 25 -3 29 9 7 27 -8
7 -12 17 -9 22 4 6 10 5 15 -3 6 -10 8 -7 6 8 -1 20 -3 21 -18 7 -13 -11 -19
-12 -24 -3 -6 8 -10 7 -17 -5 -9 -16 -11 -16 -28 -1 -10 9 -24 14 -29 10 -6
-3 -11 -1 -11 4 0 6 6 11 13 11 7 0 8 3 2 8 -5 4 -10 13 -11 20 -3 32 -5 34
-31 28 -25 -6 -26 -5 -10 8 14 11 15 15 4 19 -8 3 -20 1 -27 -3z m55 -71 c0
-26 4 -33 16 -31 9 1 22 -5 29 -13 10 -12 16 -13 27 -3 11 9 19 7 36 -12 12
-12 16 -19 9 -16 -7 4 -19 2 -27 -4 -8 -7 -15 -9 -15 -5 0 5 -10 0 -22 -11
-16 -13 -19 -14 -10 -2 9 11 10 18 2 23 -6 3 -7 11 -4 17 5 7 2 9 -8 5 -10 -3
-25 4 -39 19 -15 16 -18 24 -9 24 9 0 8 4 -5 13 -10 8 -15 19 -11 26 14 22 31
5 31 -30z"/>
<path d="M4780 3681 c0 -6 -9 -8 -20 -6 -11 2 -18 0 -15 -5 7 -12 38 -6 43 8
2 7 1 12 -2 12 -3 0 -6 -4 -6 -9z"/>
<path d="M1596 3795 c-3 -9 -11 -13 -17 -9 -8 5 -9 3 -4 -5 6 -10 11 -9 23 3
9 8 13 18 10 21 -3 3 -8 -1 -12 -10z"/>
<path d="M1649 3797 c6 -8 7 -18 3 -22 -4 -5 -1 -5 6 -1 10 6 10 11 1 22 -6 8
-14 14 -16 14 -3 0 0 -6 6 -13z"/>
<path d="M1560 3731 c-7 -14 -7 -22 1 -27 6 -3 9 -17 6 -31 -3 -18 -2 -22 7
-13 6 6 11 16 11 22 0 6 7 13 15 15 12 4 12 3 1 -5 -9 -7 -10 -12 -2 -16 10
-7 16 6 12 27 -1 4 6 7 15 5 9 -2 19 2 21 8 2 7 -7 12 -21 12 -14 0 -23 -4
-20 -9 3 -5 1 -9 -5 -9 -5 0 -11 3 -14 8 -2 4 -2 1 -1 -5 2 -7 0 -13 -5 -13
-16 0 -20 13 -10 31 5 11 7 19 5 19 -3 0 -10 -9 -16 -19z"/>
<path d="M4734 3739 c-4 -7 -3 -9 4 -5 6 3 13 -2 15 -11 4 -16 5 -16 6 -1 1
21 -15 32 -25 17z"/>
<path d="M4774 3738 c-4 -6 -3 -8 4 -4 5 3 12 1 14 -6 3 -8 6 -9 11 -1 4 6 0
13 -8 17 -8 3 -17 0 -21 -6z"/>
<path d="M1510 3719 c0 -5 5 -7 10 -4 6 3 10 8 10 11 0 2 -4 4 -10 4 -5 0 -10
-5 -10 -11z"/>
<path d="M1415 3680 c-3 -5 -1 -10 4 -10 6 0 11 5 11 10 0 6 -2 10 -4 10 -3 0
-8 -4 -11 -10z"/>
<path d="M1341 3634 c0 -11 3 -14 6 -6 3 7 2 16 -1 19 -3 4 -6 -2 -5 -13z"/>
<path d="M1250 3620 c0 -5 5 -10 11 -10 5 0 7 5 4 10 -3 6 -8 10 -11 10 -2 0
-4 -4 -4 -10z"/>
<path d="M1314 3612 c11 -12 16 -25 12 -29 -4 -4 -11 -1 -16 7 -7 11 -10 11
-10 2 0 -9 -5 -10 -19 -2 -14 7 -22 7 -27 -2 -4 -6 -3 -8 3 -5 6 4 19 0 29 -8
18 -13 18 -14 -3 -8 -13 3 -23 1 -23 -4 0 -13 43 -11 58 4 8 7 18 11 23 8 11
-7 12 6 1 20 -4 6 -16 17 -27 25 -20 15 -20 14 -1 -8z"/>
<path d="M1135 3583 c3 -3 0 -12 -7 -20 -6 -7 -8 -16 -4 -20 3 -3 6 -1 6 6 0
7 4 10 9 7 11 -7 9 21 -2 29 -4 3 -5 2 -2 -2z"/>
<path d="M1070 3564 c0 -20 27 -37 36 -23 4 7 3 9 -4 5 -6 -3 -15 2 -21 11 -6
10 -11 13 -11 7z"/>
<path d="M1190 3550 c-6 -11 -16 -17 -25 -14 -9 4 -22 1 -30 -6 -8 -7 -15 -9
-15 -5 0 4 -8 -3 -19 -16 -10 -12 -16 -31 -13 -42 4 -17 6 -18 14 -3 8 14 13
15 24 5 11 -9 14 -9 14 1 0 7 11 23 25 36 14 13 25 18 25 11 0 -8 4 -7 9 3 6
8 7 18 4 23 -3 5 1 13 8 18 10 6 10 9 2 9 -7 0 -17 -9 -23 -20z m-20 -28 c0
-10 -41 -35 -64 -39 -16 -3 -13 2 10 22 28 24 54 33 54 17z"/>
<path d="M1129 3503 c-13 -16 -12 -17 4 -4 9 7 17 15 17 17 0 8 -8 3 -21 -13z"/>
<path d="M1032 3514 c10 -10 20 -16 22 -13 3 3 -5 11 -17 18 -21 13 -21 12 -5
-5z"/>
<path d="M1073 3515 c0 -8 4 -12 9 -9 5 3 6 10 3 15 -9 13 -12 11 -12 -6z"/>
<path d="M1010 3475 c0 -8 2 -15 4 -15 2 0 6 7 10 15 3 8 1 15 -4 15 -6 0 -10
-7 -10 -15z"/>
<path d="M1043 3476 c-6 -8 -9 -17 -6 -20 4 -3 1 -6 -5 -6 -7 0 -12 -5 -12
-12 0 -6 3 -8 7 -5 3 4 12 2 19 -4 10 -8 12 -6 9 12 -3 12 0 28 6 36 15 17 -3
16 -18 -1z"/>
<path d="M977 3446 c-4 -11 -3 -15 4 -10 7 4 10 1 7 -7 -3 -8 -10 -15 -16 -15
-7 -1 -16 -2 -22 -3 -5 0 -10 -6 -10 -12 0 -8 6 -7 17 2 15 12 16 12 10 -6 -7
-20 -7 -20 8 -1 8 11 15 14 15 7 0 -7 5 -9 11 -5 8 4 7 9 -2 15 -8 5 -9 9 -3
9 6 0 11 7 11 15 0 8 -4 12 -8 9 -4 -2 -9 1 -11 8 -3 7 -7 5 -11 -6z"/>
<path d="M933 3435 c0 -7 6 -11 14 -8 7 3 13 6 13 8 0 2 -6 5 -13 8 -8 3 -14
-1 -14 -8z"/>
<path d="M867 3394 c6 -15 23 -19 23 -5 0 5 -7 11 -14 14 -10 4 -13 1 -9 -9z"/>
<path d="M915 3400 c3 -5 8 -10 11 -10 2 0 4 5 4 10 0 6 -5 10 -11 10 -5 0 -7
-4 -4 -10z"/>
<path d="M770 3385 c0 -7 30 -13 34 -7 3 4 -4 9 -15 9 -10 1 -19 0 -19 -2z"/>
<path d="M850 3380 c0 -5 -3 -9 -7 -9 -24 4 -35 -3 -29 -17 6 -15 4 -15 -19 0
l-26 17 15 -23 c8 -13 15 -27 15 -31 -1 -5 2 -12 6 -15 4 -4 5 0 3 8 -2 9 4
14 14 14 10 -1 15 2 12 7 -3 5 -2 9 3 10 42 4 61 14 48 27 -4 4 -10 1 -12 -6
-3 -6 -9 -10 -13 -7 -5 3 -7 12 -3 20 3 8 2 15 -1 15 -3 0 -6 -4 -6 -10z m-5
-20 c3 -5 -1 -10 -10 -10 -9 0 -13 5 -10 10 3 6 8 10 10 10 2 0 7 -4 10 -10z"/>
<path d="M678 3333 c7 -3 16 -2 19 1 4 3 -2 6 -13 5 -11 0 -14 -3 -6 -6z"/>
<path d="M677 3313 c-10 -9 -9 -23 1 -23 5 0 9 7 9 15 0 17 -1 18 -10 8z"/>
<path d="M600 3300 c-8 -5 -10 -10 -5 -10 6 0 17 5 25 10 8 5 11 10 5 10 -5 0
-17 -5 -25 -10z"/>
<path d="M555 3259 c-3 -4 2 -6 10 -5 21 3 28 13 10 13 -9 0 -18 -4 -20 -8z"/>
<path d="M625 3209 c-4 -6 -5 -12 -2 -15 2 -3 7 2 10 11 7 17 1 20 -8 4z"/>
<path d="M573 3175 c0 -8 4 -12 9 -9 5 3 6 10 3 15 -9 13 -12 11 -12 -6z"/>
<path d="M426 3165 c-11 -8 -15 -15 -9 -15 6 0 16 7 23 15 16 19 11 19 -14 0z"/>
<path d="M512 3119 c-12 -19 -11 -19 8 -9 11 6 18 15 15 21 -8 12 -8 12 -23
-12z"/>
<path d="M335 3101 c-3 -5 -2 -12 3 -15 5 -3 9 1 9 9 0 17 -3 19 -12 6z"/>
<path d="M315 3069 c-4 -6 -5 -12 -2 -15 2 -3 7 2 10 11 7 17 1 20 -8 4z"/>
<path d="M292 3036 c7 -8 15 -12 17 -11 5 6 -10 25 -20 25 -5 0 -4 -6 3 -14z"/>
<path d="M4735 2339 c-4 -6 -4 -13 -1 -16 3 -4 6 -1 6 6 0 7 5 9 12 5 7 -4 8
-3 4 4 -9 15 -13 15 -21 1z"/>
<path d="M4775 2341 c-3 -5 0 -13 6 -17 8 -5 9 -3 4 6 -6 10 -4 12 8 7 10 -3
17 -2 17 3 0 13 -27 13 -35 1z"/>
<path d="M4816 2315 c-9 -26 -7 -32 5 -12 6 10 9 21 6 23 -2 3 -7 -2 -11 -11z"/>
<path d="M4715 2300 c3 -5 8 -10 11 -10 2 0 4 5 4 10 0 6 -5 10 -11 10 -5 0
-7 -4 -4 -10z"/>
<path d="M4709 2277 c6 -8 7 -18 3 -22 -4 -5 -1 -5 6 -1 10 6 10 11 1 22 -6 8
-14 14 -16 14 -3 0 0 -6 6 -13z"/>
<path d="M4605 2226 c-11 -6 -21 -19 -21 -28 -1 -10 2 -15 8 -12 5 3 16 0 25
-8 14 -11 16 -11 8 1 -6 11 -4 13 11 8 18 -7 18 -6 2 6 -19 15 -14 27 9 27 8
0 11 -5 7 -12 -4 -7 -3 -8 5 -4 29 18 -22 38 -54 22z m16 -9 c-6 -8 -7 -18 -3
-22 4 -5 1 -5 -6 -1 -10 6 -10 11 -1 22 6 8 14 14 16 14 3 0 0 -6 -6 -13z"/>
<path d="M4593 2105 c0 -8 4 -12 9 -9 5 3 6 10 3 15 -9 13 -12 11 -12 -6z"/>
<path d="M4457 2090 c-7 -11 -17 -17 -22 -12 -5 4 -5 2 -2 -4 4 -7 0 -17 -8
-24 -8 -7 -15 -9 -15 -4 0 4 -15 -7 -33 -24 -18 -18 -38 -29 -43 -25 -5 5 2
-4 15 -19 14 -16 29 -28 35 -28 6 0 5 4 -3 9 -11 7 -9 10 9 16 16 5 19 9 10
15 -7 4 -9 13 -5 20 6 9 12 6 22 -11 8 -13 12 -17 9 -7 -6 21 18 56 28 40 4
-7 12 -12 19 -12 6 0 1 7 -11 16 -12 8 -19 20 -16 26 4 7 10 5 16 -6 7 -13 12
-14 28 -3 11 6 20 17 20 24 0 16 12 17 26 3 7 -7 11 -6 11 3 0 8 -5 14 -11 15
-6 0 -23 3 -38 6 -20 5 -30 1 -41 -14z m42 -11 c-14 -27 -26 -31 -33 -12 -7
17 5 30 29 30 10 0 11 -5 4 -18z m-69 -44 c-7 -8 -16 -13 -20 -10 -11 7 -33
-22 -26 -34 3 -5 -1 -11 -9 -15 -27 -10 -24 11 5 39 17 16 30 25 30 20 0 -5 5
-4 12 3 17 17 23 15 8 -3z"/>
<path d="M4567 2079 c7 -7 15 -10 18 -7 3 3 -2 9 -12 12 -14 6 -15 5 -6 -5z"/>
<path d="M4495 2040 c-3 -5 -1 -10 4 -10 6 0 11 5 11 10 0 6 -2 10 -4 10 -3 0
-8 -4 -11 -10z"/>
<path d="M4456 1993 c-6 -14 -5 -15 5 -6 7 7 10 15 7 18 -3 3 -9 -2 -12 -12z"/>
<path d="M4356 1927 c3 -10 9 -15 12 -12 3 3 0 11 -7 18 -10 9 -11 8 -5 -6z"/>
<path d="M4215 1859 c-4 -6 -5 -12 -2 -15 2 -3 7 2 10 11 7 17 1 20 -8 4z"/>
<path d="M4179 1833 c-13 -16 -12 -17 4 -4 16 13 21 21 13 21 -2 0 -10 -8 -17
-17z"/>
<path d="M4199 1813 c-13 -17 -13 -17 6 -3 11 8 22 16 24 17 2 2 0 3 -6 3 -6
0 -17 -8 -24 -17z"/>
<path d="M4130 1802 c0 -5 7 -9 15 -9 8 0 12 4 9 9 -3 4 -9 8 -15 8 -5 0 -9
-4 -9 -8z"/>
<path d="M4170 1780 c0 -5 5 -10 11 -10 5 0 7 5 4 10 -3 6 -8 10 -11 10 -2 0
-4 -4 -4 -10z"/>
<path d="M3983 1730 c2 -8 10 -15 17 -15 7 0 15 7 17 15 4 13 3 13 -6 0 -10
-13 -12 -13 -22 0 -9 13 -10 13 -6 0z"/>
<path d="M3856 1712 c-3 -5 1 -9 9 -9 8 0 12 4 9 9 -3 4 -7 8 -9 8 -2 0 -6 -4
-9 -8z"/>
<path d="M3956 1707 c3 -10 9 -15 12 -12 3 3 0 11 -7 18 -10 9 -11 8 -5 -6z"/>
<path d="M3796 1633 c10 -7 13 -13 8 -13 -6 0 -11 -7 -11 -15 0 -8 4 -12 8 -9
4 2 10 -2 13 -8 3 -7 3 -2 0 11 -4 17 -3 21 6 16 8 -5 8 -2 -1 12 -6 11 -18
20 -27 20 -11 0 -11 -3 4 -14z"/>
<path d="M3835 1600 c-3 -6 1 -7 9 -4 18 7 21 14 7 14 -6 0 -13 -4 -16 -10z"/>
<path d="M3876 1582 c-3 -5 1 -9 9 -9 8 0 12 4 9 9 -3 4 -7 8 -9 8 -2 0 -6 -4
-9 -8z"/>
<path d="M3747 1539 c7 -7 15 -10 18 -7 3 3 -2 9 -12 12 -14 6 -15 5 -6 -5z"/>
<path d="M293 1521 c0 -11 5 -18 9 -15 4 3 5 11 1 19 -7 21 -12 19 -10 -4z"/>
<path d="M3693 1525 c0 -8 4 -12 9 -9 5 3 6 10 3 15 -9 13 -12 11 -12 -6z"/>
<path d="M3653 1505 c0 -8 4 -12 9 -9 5 3 6 10 3 15 -9 13 -12 11 -12 -6z"/>
<path d="M390 1496 c0 -3 9 -10 20 -16 11 -6 20 -8 20 -6 0 3 -9 10 -20 16
-11 6 -20 8 -20 6z"/>
<path d="M3516 1491 c-4 -6 -1 -11 6 -11 9 0 9 -3 2 -8 -6 -4 -16 -17 -23 -29
-6 -13 -16 -23 -22 -23 -6 0 -7 5 -3 12 4 7 3 8 -5 4 -6 -4 -9 -11 -6 -16 6
-10 70 -8 81 2 3 4 -5 5 -20 2 -19 -3 -24 -1 -20 11 3 8 10 13 16 12 13 -3 18
26 8 43 -5 9 -9 9 -14 1z"/>
<path d="M319 1473 c-13 -16 -12 -17 4 -4 9 7 17 15 17 17 0 8 -8 3 -21 -13z"/>
<path d="M371 1473 c7 -12 15 -20 18 -17 3 2 -3 12 -13 22 -17 16 -18 16 -5
-5z"/>
<path d="M465 1482 c3 -3 -2 -16 -11 -29 -15 -24 -15 -24 9 -9 13 9 28 13 32
9 5 -5 4 -1 -3 8 -6 9 -10 18 -7 21 3 2 -2 5 -10 5 -8 0 -13 -3 -10 -5z"/>
<path d="M536 1318 c3 -4 11 -5 19 -1 21 7 19 12 -4 10 -11 0 -18 -5 -15 -9z"/>
<path d="M3393 1315 c0 -8 4 -12 9 -9 4 3 8 9 8 15 0 5 -4 9 -8 9 -5 0 -9 -7
-9 -15z"/>
<path d="M588 1303 c7 -3 16 -2 19 1 4 3 -2 6 -13 5 -11 0 -14 -3 -6 -6z"/>
<path d="M594 1282 c4 -3 14 -7 22 -8 9 -1 13 0 10 4 -4 3 -14 7 -22 8 -9 1
-13 0 -10 -4z"/>
<path d="M636 1255 c-9 -26 -7 -32 5 -12 6 10 9 21 6 23 -2 3 -7 -2 -11 -11z"/>
<path d="M3330 1260 c0 -5 5 -10 11 -10 5 0 7 5 4 10 -3 6 -8 10 -11 10 -2 0
-4 -4 -4 -10z"/>
<path d="M691 1244 c0 -11 3 -14 6 -6 3 7 2 16 -1 19 -3 4 -6 -2 -5 -13z"/>
<path d="M707 1226 c-4 -10 -3 -15 3 -11 6 3 10 1 10 -6 0 -7 3 -10 6 -6 3 3
2 13 -4 22 -8 16 -9 16 -15 1z"/>
<path d="M655 1220 c3 -5 8 -10 11 -10 2 0 4 5 4 10 0 6 -5 10 -11 10 -5 0 -7
-4 -4 -10z"/>
<path d="M3275 1220 c3 -5 8 -10 11 -10 2 0 4 5 4 10 0 6 -5 10 -11 10 -5 0
-7 -4 -4 -10z"/>
<path d="M3253 1205 c0 -8 4 -12 9 -9 5 3 6 10 3 15 -9 13 -12 11 -12 -6z"/>
<path d="M870 1202 c0 -5 7 -9 15 -9 8 0 12 4 9 9 -3 4 -9 8 -15 8 -5 0 -9 -4
-9 -8z"/>
<path d="M3190 1190 c-9 -16 -8 -18 5 -14 8 3 12 11 8 17 -4 6 0 8 11 4 10 -4
15 -3 11 3 -10 16 -23 12 -35 -10z"/>
<path d="M706 1178 c3 -5 10 -6 15 -3 13 9 11 12 -6 12 -8 0 -12 -4 -9 -9z"/>
<path d="M3155 1180 c3 -5 2 -10 -3 -10 -6 0 -13 -8 -16 -17 -6 -15 -5 -15 13
1 18 16 20 36 5 36 -3 0 -2 -4 1 -10z"/>
<path d="M2957 1127 c-42 -42 -56 -67 -37 -67 6 0 10 7 10 15 0 8 5 15 11 15
5 0 7 -5 4 -10 -13 -22 19 -4 46 25 27 30 28 30 44 10 16 -20 16 -19 5 3 -8
16 -17 21 -36 18 -14 -3 -22 -1 -19 5 9 13 63 11 68 -3 4 -10 6 -10 6 -1 1 14
-11 23 -40 28 -14 3 -33 -9 -62 -38z m23 -19 c-20 -18 -46 -16 -34 3 3 5 10 7
15 4 5 -4 9 -2 9 3 0 5 7 9 15 9 12 0 11 -5 -5 -19z"/>
<path d="M835 1140 c-3 -6 1 -7 9 -4 18 7 21 14 7 14 -6 0 -13 -4 -16 -10z"/>
<path d="M3170 1141 c0 -6 4 -13 10 -16 6 -3 7 1 4 9 -7 18 -14 21 -14 7z"/>
<path d="M914 1126 c1 -8 5 -18 8 -22 4 -3 5 1 4 10 -1 8 -5 18 -8 22 -4 3 -5
-1 -4 -10z"/>
<path d="M3095 1129 c-4 -6 -5 -12 -2 -15 2 -3 7 2 10 11 7 17 1 20 -8 4z"/>
<path d="M2866 1075 c-53 -37 -59 -48 -44 -80 8 -19 8 -19 4 2 -2 13 2 24 11
27 10 4 13 2 10 -7 -3 -8 -1 -20 4 -28 7 -12 9 -12 10 1 1 8 1 20 0 26 -1 6 6
11 14 11 8 0 15 -4 15 -9 0 -4 5 -8 11 -8 8 0 8 4 2 13 -13 16 -13 47 0 47 6
0 7 3 4 7 -4 3 -2 12 4 20 18 20 8 16 -45 -22z m16 -22 c-6 -2 -10 -8 -7 -13
7 -11 -22 -7 -32 5 -4 4 -2 5 5 1 6 -4 12 -2 12 3 0 6 8 11 18 10 10 0 12 -3
4 -6z"/>
<path d="M3014 1102 c3 -6 -2 -12 -11 -14 -16 -3 -17 -4 -1 -10 19 -8 33 17
16 28 -6 4 -8 3 -4 -4z"/>
<path d="M2974 1058 c-4 -7 -4 -10 1 -6 4 4 15 2 24 -5 14 -11 14 -10 2 6 -16
20 -18 21 -27 5z"/>
<path d="M1077 1033 c5 -12 3 -14 -7 -8 -9 5 -11 4 -6 -4 4 -6 12 -9 17 -6 12
8 12 35 -1 35 -5 0 -6 -7 -3 -17z"/>
<path d="M2910 1040 c0 -5 5 -10 10 -10 6 0 10 5 10 10 0 6 -4 10 -10 10 -5 0
-10 -4 -10 -10z"/>
<path d="M1236 1011 c-3 -5 1 -11 9 -15 8 -3 15 -1 15 4 0 13 -18 22 -24 11z"/>
<path d="M1026 998 c3 -5 10 -6 15 -3 13 9 11 12 -6 12 -8 0 -12 -4 -9 -9z"/>
<path d="M1167 978 c7 -8 11 -17 8 -20 -3 -2 2 -5 10 -5 21 0 19 10 -7 26 -20
13 -22 12 -11 -1z"/>
<path d="M2761 953 c-10 -11 -10 -17 -2 -24 6 -5 9 -6 6 -3 -3 4 0 13 7 21 15
19 6 24 -11 6z"/>
<path d="M1215 949 c-4 -6 -5 -12 -2 -15 2 -3 7 2 10 11 7 17 1 20 -8 4z"/>
<path d="M2605 930 c-4 -6 -3 -16 3 -22 13 -13 23 4 13 21 -7 10 -10 10 -16 1z"/>
<path d="M1240 920 c-12 -7 -10 -9 7 -7 12 0 19 5 17 9 -6 10 -6 10 -24 -2z"/>
<path d="M1295 900 c-3 -5 -1 -10 4 -10 6 0 11 5 11 10 0 6 -2 10 -4 10 -3 0
-8 -4 -11 -10z"/>
<path d="M1403 893 c-15 -5 -17 -23 -4 -23 5 0 11 7 15 15 3 8 4 15 3 14 -1 0
-8 -3 -14 -6z"/>
<path d="M1316 881 c-3 -5 2 -15 12 -22 15 -12 16 -12 5 2 -7 9 -10 19 -6 22
3 4 4 7 0 7 -3 0 -8 -4 -11 -9z"/>
<path d="M2657 835 c-4 -8 -3 -16 1 -19 4 -3 9 4 9 15 2 23 -3 25 -10 4z"/>
<path d="M1500 815 c-7 -8 -16 -13 -20 -10 -5 3 -11 1 -14 -4 -4 -5 2 -8 11
-6 10 2 18 4 18 5 0 1 10 3 23 4 12 2 22 -1 22 -6 0 -4 -9 -8 -19 -8 -10 0
-21 -6 -24 -14 -5 -11 -1 -11 24 1 16 8 29 19 29 24 0 6 5 7 12 3 8 -5 4 -13
-11 -26 -13 -10 -19 -18 -14 -18 5 0 14 5 20 11 8 8 17 5 32 -10 12 -12 21
-17 21 -13 0 4 -5 13 -12 20 -8 8 -8 12 -1 12 15 0 34 -25 25 -35 -4 -5 -1 -5
6 -1 7 4 10 12 7 17 -4 5 -1 9 6 9 7 0 4 6 -6 14 -11 8 -25 12 -32 9 -7 -3
-13 0 -13 7 0 6 -4 9 -9 5 -5 -3 -12 -1 -16 5 -4 6 -10 8 -15 5 -5 -3 -11 -1
-15 5 -9 14 -20 12 -35 -5z"/>
<path d="M1438 813 c7 -3 16 -2 19 1 4 3 -2 6 -13 5 -11 0 -14 -3 -6 -6z"/>
<path d="M2580 800 c-8 -5 -10 -10 -5 -10 6 0 17 5 25 10 8 5 11 10 5 10 -5 0
-17 -5 -25 -10z"/>
<path d="M1429 783 c-13 -16 -12 -17 4 -4 16 13 21 21 13 21 -2 0 -10 -8 -17
-17z"/>
<path d="M2429 772 c-11 -18 -14 -19 -24 -5 -10 13 -12 13 -12 1 0 -7 6 -19
14 -26 7 -7 13 -8 13 -3 0 5 7 17 16 26 9 9 14 18 11 21 -3 3 -11 -3 -18 -14z"/>
<path d="M1555 751 c-3 -5 -2 -12 3 -15 5 -3 9 1 9 9 0 17 -3 19 -12 6z"/>
<path d="M2470 740 c0 -5 5 -10 10 -10 6 0 10 5 10 10 0 6 -4 10 -10 10 -5 0
-10 -4 -10 -10z"/>
<path d="M1635 730 c-4 -6 -11 -7 -17 -4 -7 4 -8 2 -4 -5 6 -9 12 -9 24 1 10
7 19 14 21 15 2 2 -1 3 -7 3 -6 0 -14 -5 -17 -10z"/>
<path d="M2426 723 c-6 -14 -5 -15 5 -6 7 7 10 15 7 18 -3 3 -9 -2 -12 -12z"/>
<path d="M1670 721 c0 -5 5 -13 10 -16 6 -3 10 -2 10 4 0 5 -4 13 -10 16 -5 3
-10 2 -10 -4z"/>
<path d="M2238 707 c-7 -8 -23 -13 -35 -12 -16 1 -20 -2 -13 -10 5 -7 9 -14 7
-16 -1 -2 3 1 8 7 10 11 17 14 34 14 5 0 11 7 15 15 7 19 2 19 -16 2z"/>
<path d="M1874 677 c0 -13 6 -29 13 -36 9 -8 13 -8 13 -1 0 6 4 9 9 5 5 -3 13
0 17 6 4 7 3 9 -3 6 -6 -4 -15 5 -21 18 -14 31 -28 32 -28 2z"/>
<path d="M1718 683 c7 -3 16 -2 19 1 4 3 -2 6 -13 5 -11 0 -14 -3 -6 -6z"/>
<path d="M2160 660 c13 -8 12 -10 -2 -10 -10 0 -18 -5 -18 -11 0 -6 6 -9 14
-6 7 3 18 1 24 -5 6 -6 12 -6 17 2 7 11 -21 39 -40 40 -5 0 -3 -5 5 -10z"/>
<path d="M1654 638 c-3 -5 0 -7 8 -6 7 2 12 -2 11 -8 -1 -6 5 -11 12 -11 10 0
12 4 5 12 -5 7 -8 14 -5 17 3 2 -2 5 -10 5 -9 0 -18 -4 -21 -9z"/>
<path d="M2155 620 c-3 -5 -1 -10 4 -10 6 0 11 5 11 10 0 6 -2 10 -4 10 -3 0
-8 -4 -11 -10z"/>
<path d="M2389 617 c6 -8 7 -18 3 -22 -4 -5 -1 -5 6 -1 10 6 10 11 1 22 -6 8
-14 14 -16 14 -3 0 0 -6 6 -13z"/>
<path d="M2310 610 c0 -5 5 -10 10 -10 6 0 10 5 10 10 0 6 -4 10 -10 10 -5 0
-10 -4 -10 -10z"/>
<path d="M1710 606 c0 -2 9 -6 20 -9 11 -3 18 -1 14 4 -5 9 -34 13 -34 5z"/>
</g>
</svg>
