<svg width="118" height="23" viewBox="0 0 118 23" fill="none" xmlns="http://www.w3.org/2000/svg">
<g clip-path="url(#clip0_4_4)">
<path d="M23.0281 1.2498L18.7235 0.189969C17.1281 -0.190483 15.3821 -0.000257297 13.8771 0.624769L4.03367 4.89126C1.59541 5.89674 0 8.20662 0 10.6524V13.397C0 15.7069 1.38469 17.8538 3.61225 18.968L8.33827 21.3594C9.45204 21.93 10.626 22.1747 11.8 22.1747C13.1245 22.1747 14.449 21.8485 15.6229 21.1691L25.045 15.6526C27.0919 14.4568 28.2959 12.4459 28.2959 10.2719V7.44572C28.2959 4.51081 26.1286 1.95634 23.0281 1.2498Z" fill="#0A0B1E"/>
<path d="M5.53966 7.77156C4.30548 8.26071 3.52283 9.40207 3.52283 10.6521V13.3968C3.52283 14.511 4.21517 15.6523 5.32895 16.2231L10.055 18.6145C11.1687 19.1851 12.6136 19.1851 13.6672 18.4785L23.0891 13.0435C24.1427 12.4728 24.7447 11.413 24.7447 10.3532V7.52699C24.7447 6.0867 23.631 4.83665 22.0958 4.4562L17.7912 3.45072C16.9483 3.2605 16.1356 3.31485 15.3529 3.64094L5.53966 7.77156Z" fill="#FFFD63"/>
<path d="M112.189 10.0006C111.798 9.91909 111.948 9.42994 112.189 9.07667C112.43 8.64186 112.581 8.20707 112.581 7.71792V7.58204C112.581 7.28311 112.34 7.09289 112.039 7.09289H108.547C108.216 7.09289 108.005 7.31029 108.005 7.58204V19.9195C108.005 20.2184 108.246 20.4087 108.547 20.4087H112.129C112.46 20.4087 112.671 20.1913 112.671 19.9195V15.3813C112.671 12.0931 113.785 10.7072 117.427 10.7887C117.758 10.7887 117.969 10.5713 117.969 10.2995V7.36464C117.969 7.06571 117.728 6.87549 117.427 6.87549C114.236 6.95701 113.454 7.88096 112.581 9.593C112.581 9.78322 112.43 10.0006 112.189 10.0006Z" fill="#0A0B1E"/>
<path d="M106.862 13.153C106.862 8.47886 103.129 6.33203 99.3065 6.33203C94.3096 6.33203 91.3596 9.34847 91.3596 13.5062C91.3596 17.5282 94.129 20.6805 99.3968 20.6805C103.28 20.6805 105.598 18.6696 106.38 16.3053C106.471 16.0064 106.23 15.7347 105.899 15.7347H102.407C102.166 15.7347 101.955 15.8434 101.865 16.0335C101.293 16.8488 100.601 17.3922 99.3366 17.3922C97.6811 17.3922 96.3866 16.4684 95.9953 15.0281C95.905 14.7291 96.1459 14.4574 96.4769 14.4574H106.32C106.561 14.4574 106.772 14.4302 106.832 14.0226C106.832 13.9139 106.862 13.4519 106.862 13.153ZM99.3968 9.56587C100.902 9.56587 101.955 10.2724 102.347 11.6583C102.437 11.9573 102.196 12.1475 101.865 12.1475H96.6876C96.3565 12.1475 96.1459 11.8486 96.2061 11.5768C96.6274 10.3811 97.5005 9.56587 99.3968 9.56587Z" fill="#0A0B1E"/>
<path d="M90.3345 10.4355C90.6657 10.4355 90.8764 10.2181 90.8764 9.94634V7.58211C90.8764 7.28318 90.6355 7.09295 90.3345 7.09295H87.8059C87.4749 7.09295 87.4147 6.87555 87.4147 6.6038V3.56019C87.4147 3.26127 87.1738 3.07104 86.8728 3.07104H83.2907C82.9595 3.07104 82.7488 3.28844 82.7488 3.56019V6.57662C82.7488 6.87555 82.508 7.06578 82.207 7.06578H80.9426C80.6116 7.06578 80.4009 7.28318 80.4009 7.55493V9.91916C80.4009 10.2181 80.6416 10.4083 80.9426 10.4083H82.207C82.5381 10.4083 82.7488 10.6257 82.7488 10.8975V16.2782C82.7488 19.5663 84.1937 20.436 87.2039 20.436H90.6055C90.9366 20.436 91.1472 20.2185 91.1472 19.9468V17.5825C91.1472 17.2836 90.9065 17.0933 90.6055 17.0933H88.6488C87.3845 17.0933 87.3845 17.0119 87.3845 15.7346V10.9518C87.3845 10.6529 87.5351 10.4627 87.7759 10.4627H90.3345V10.4355Z" fill="#0A0B1E"/>
<path d="M78.6556 10.4355C78.9868 10.4355 79.1974 10.2181 79.1974 9.94634V7.58211C79.1974 7.28318 78.9566 7.09295 78.6556 7.09295H76.127C75.796 7.09295 75.7358 6.87555 75.7358 6.6038V3.56019C75.7358 3.26127 75.4949 3.07104 75.1939 3.07104H71.6117C71.2806 3.07104 71.0699 3.28844 71.0699 3.56019V6.57662C71.0699 6.87555 70.8291 7.06578 70.5281 7.06578H69.2637C68.9327 7.06578 68.7219 7.28318 68.7219 7.55493V9.91916C68.7219 10.2181 68.9627 10.4083 69.2637 10.4083H70.5281C70.8591 10.4083 71.0699 10.6257 71.0699 10.8975V16.2782C71.0699 19.5663 72.5148 20.436 75.525 20.436H78.8664C79.1975 20.436 79.4081 20.2185 79.4081 19.9468V17.5825C79.4081 17.2836 79.1673 17.0933 78.8664 17.0933H76.9097C75.6454 17.0933 75.6454 17.0119 75.6454 15.7346V10.9518C75.6454 10.6529 75.796 10.4627 76.0368 10.4627H78.6556V10.4355Z" fill="#0A0B1E"/>
<path d="M57.7646 20.7621C60.3834 20.7621 61.9788 18.887 62.7615 17.6097C62.8518 17.3923 63.0024 17.1206 63.3936 17.2565C63.785 17.3923 63.484 17.9087 63.2432 18.3436C63.0024 18.7783 62.8518 19.2131 62.8518 19.7837V19.9197C62.8518 20.2185 63.0926 20.4088 63.3936 20.4088H66.8855C67.2166 20.4088 67.5176 20.1914 67.5176 19.9197V7.58217C67.5176 7.28324 67.1865 7.09302 66.8855 7.09302H63.3936C63.0626 7.09302 62.8518 7.31042 62.8518 7.58217V12.0389C62.8518 15.1912 61.1962 17.2836 59.36 17.2836C57.7646 17.2836 57.0422 16.4141 57.0422 13.3976V7.58217C57.0422 7.28324 56.7109 7.09302 56.41 7.09302H52.9182C52.587 7.09302 52.3763 7.31042 52.3763 7.58217V15.0553C52.3462 18.8326 54.4834 20.7621 57.7646 20.7621Z" fill="#0A0B1E"/>
<path d="M40.0355 2.33705C40.0355 2.03812 39.7947 1.8479 39.4938 1.8479H35.9116C35.5805 1.8479 35.3697 2.0653 35.3697 2.33705V19.9194C35.3697 20.2182 35.6105 20.4085 35.9116 20.4085H39.4034C39.7345 20.4085 40.0355 20.1911 40.0355 19.9194C40.0355 19.566 39.7947 19.2128 39.5539 18.8323C39.3132 18.3975 39.0723 17.9628 39.4636 17.8268C39.7947 17.7454 39.8549 18.0442 39.9453 18.1801C40.9086 19.8378 42.4136 20.8432 44.7013 20.8432C48.8253 20.8432 51.2334 17.691 51.2334 13.669C51.2334 9.64715 48.8555 6.49484 44.7013 6.49484C42.3836 6.49484 40.8784 7.58185 39.9453 9.158C39.8549 9.3754 39.6141 9.72868 39.3132 9.51127C38.9218 9.3754 39.3132 8.85908 39.5539 8.42427C39.7947 8.071 40.0355 7.71772 40.0355 7.28292V2.33705ZM43.4672 17.2562C41.3299 17.2562 39.9753 15.5441 39.9753 13.5332C39.9753 11.5222 41.2999 9.78302 43.4672 9.78302C45.7851 9.78302 46.8086 11.4951 46.8086 13.506C46.8086 15.5169 45.7549 17.2562 43.4672 17.2562Z" fill="#0A0B1E"/>
</g>
<defs>
<clipPath id="clip0_4_4">
<rect width="118" height="23" fill="white"/>
</clipPath>
</defs>
</svg>
